<?xml version="1.0" encoding="UTF-8" standalone="no"?>
<!-- Created with Inkscape (http://www.inkscape.org/) -->
<svg
   xmlns:dc="http://purl.org/dc/elements/1.1/"
   xmlns:cc="http://web.resource.org/cc/"
   xmlns:rdf="http://www.w3.org/1999/02/22-rdf-syntax-ns#"
   xmlns:svg="http://www.w3.org/2000/svg"
   xmlns="http://www.w3.org/2000/svg"
   xmlns:xlink="http://www.w3.org/1999/xlink"
   xmlns:sodipodi="http://sodipodi.sourceforge.net/DTD/sodipodi-0.dtd"
   xmlns:inkscape="http://www.inkscape.org/namespaces/inkscape"
   width="500"
   height="250"
   id="svg1872"
   sodipodi:version="0.32"
   inkscape:version="0.44.1"
   version="1.0"
   sodipodi:docbase="c:\projects\subsonic\trunk\subsonic-site\src\site\resources\images"
   sodipodi:docname="subsonic.svg">
  <defs
     id="defs1874"><linearGradient
   id="linearGradient2796">
  <stop
     style="stop-color:#c8beb7;stop-opacity:1;"
     offset="0"
     id="stop2798" />
  <stop
     style="stop-color:#4a4644;stop-opacity:0.9921568;"
     offset="1"
     id="stop2800" />
</linearGradient>
<linearGradient
   id="linearGradient10081">
  <stop
     style="stop-color:lime;stop-opacity:1;"
     offset="0"
     id="stop10083" />
  <stop
     style="stop-color:#060;stop-opacity:0.97938144;"
     offset="1"
     id="stop10085" />
</linearGradient>
<linearGradient
   id="linearGradient9174">
  <stop
     style="stop-color:#efe500;stop-opacity:1;"
     offset="0"
     id="stop9176" />
  <stop
     id="stop9186"
     offset="1"
     style="stop-color:#f05108;stop-opacity:1;" />
</linearGradient>
<linearGradient
   id="linearGradient2841">
  <stop
     id="stop2843"
     offset="0"
     style="stop-color:#efe600;stop-opacity:1;" />
  <stop
     style="stop-color:#ef0000;stop-opacity:1;"
     offset="0.5"
     id="stop2851" />
  <stop
     id="stop2853"
     offset="0.5"
     style="stop-color:#ef7300;stop-opacity:0.49803922;" />
  <stop
     style="stop-color:#efac00;stop-opacity:0.24705882;"
     offset="0.5"
     id="stop2855" />
  <stop
     id="stop2857"
     offset="0.5"
     style="stop-color:#efc900;stop-opacity:0.12156863;" />
  <stop
     style="stop-color:#efd700;stop-opacity:0.05882353;"
     offset="0.5"
     id="stop2859" />
  <stop
     id="stop2861"
     offset="0.5"
     style="stop-color:#efde00;stop-opacity:0.02745098;" />
  <stop
     style="stop-color:#efe200;stop-opacity:0.01176471;"
     offset="0.5"
     id="stop2863" />
  <stop
     id="stop2865"
     offset="0.5"
     style="stop-color:#efe400;stop-opacity:0.00392157;" />
  <stop
     style="stop-color:#efe500;stop-opacity:0;"
     offset="0.5"
     id="stop2867" />
  <stop
     id="stop2869"
     offset="0.5"
     style="stop-color:#efe500;stop-opacity:0;" />
  <stop
     style="stop-color:#efe500;stop-opacity:0;"
     offset="0.5"
     id="stop2871" />
  <stop
     id="stop2845"
     offset="1"
     style="stop-color:#efe600;stop-opacity:0;" />
</linearGradient>
<linearGradient
   id="linearGradient2833">
  <stop
     id="stop2847"
     offset="0"
     style="stop-color:#17e600;stop-opacity:0.98969072;" />
  <stop
     style="stop-color:#efe600;stop-opacity:0;"
     offset="1"
     id="stop2837" />
</linearGradient>
<linearGradient
   id="linearGradient2787">
  <stop
     id="stop2809"
     offset="0"
     style="stop-color:#ef6000;stop-opacity:0.00392157;" />
  <stop
     style="stop-color:#ef8d00;stop-opacity:0;"
     offset="0"
     id="stop2813" />
  <stop
     style="stop-color:#efbb00;stop-opacity:0;"
     offset="1"
     id="stop2791" />
</linearGradient>

   
   
   
   
   
   
   
   
   
   
   
   
   
   
   
   
   
   
   
   
   
   
   
   
   
   
  <linearGradient
   y2="458576"
   x2="226554"
   y1="494304"
   x1="187780"
   gradientUnits="userSpaceOnUse"
   id="linearGradient2265"
   xlink:href="#id0"
   inkscape:collect="always" />
<linearGradient
   y2="492236"
   x2="283106"
   y1="487973"
   x1="287369"
   gradientUnits="userSpaceOnUse"
   id="linearGradient2263"
   xlink:href="#id0"
   inkscape:collect="always" />
<linearGradient
   y2="492821"
   x2="274440"
   y1="489058"
   x1="278203"
   gradientUnits="userSpaceOnUse"
   id="linearGradient2261"
   xlink:href="#id0"
   inkscape:collect="always" />
<linearGradient
   y2="493323"
   x2="265334"
   y1="489599"
   x1="269058"
   gradientUnits="userSpaceOnUse"
   id="linearGradient2259"
   xlink:href="#id0"
   inkscape:collect="always" />
<linearGradient
   y2="493700"
   x2="239041"
   y1="490473"
   x1="242268"
   gradientUnits="userSpaceOnUse"
   id="linearGradient2257"
   xlink:href="#id0"
   inkscape:collect="always" />
<linearGradient
   y2="493700"
   x2="239041"
   y1="490473"
   x1="242268"
   gradientUnits="userSpaceOnUse"
   id="linearGradient2255"
   xlink:href="#id0"
   inkscape:collect="always" />
<linearGradient
   y2="493700"
   x2="239041"
   y1="490473"
   x1="242268"
   gradientUnits="userSpaceOnUse"
   id="linearGradient2253"
   xlink:href="#id0"
   inkscape:collect="always" />
<linearGradient
   y2="486606"
   x2="308315"
   y1="484426"
   x1="310494"
   gradientUnits="userSpaceOnUse"
   id="linearGradient2251"
   xlink:href="#id0"
   inkscape:collect="always" />
<linearGradient
   y2="488712"
   x2="302023"
   y1="485658"
   x1="305078"
   gradientUnits="userSpaceOnUse"
   id="linearGradient2249"
   xlink:href="#id0"
   inkscape:collect="always" />
<linearGradient
   y2="492236"
   x2="283106"
   y1="487973"
   x1="287369"
   gradientUnits="userSpaceOnUse"
   id="linearGradient2247"
   xlink:href="#id0"
   inkscape:collect="always" />
<linearGradient
   y2="492236"
   x2="283106"
   y1="487973"
   x1="287369"
   gradientUnits="userSpaceOnUse"
   id="linearGradient2245"
   xlink:href="#id0"
   inkscape:collect="always" />
<linearGradient
   y2="492821"
   x2="274440"
   y1="489058"
   x1="278203"
   gradientUnits="userSpaceOnUse"
   id="linearGradient2243"
   xlink:href="#id0"
   inkscape:collect="always" />
<linearGradient
   y2="493323"
   x2="265334"
   y1="489599"
   x1="269058"
   gradientUnits="userSpaceOnUse"
   id="linearGradient2241"
   xlink:href="#id0"
   inkscape:collect="always" />
<linearGradient
   y2="493700"
   x2="239041"
   y1="490473"
   x1="242268"
   gradientUnits="userSpaceOnUse"
   id="linearGradient2239"
   xlink:href="#id0"
   inkscape:collect="always" />
<linearGradient
   y2="493700"
   x2="239041"
   y1="490473"
   x1="242268"
   gradientUnits="userSpaceOnUse"
   id="linearGradient2237"
   xlink:href="#id0"
   inkscape:collect="always" />
<linearGradient
   y2="493700"
   x2="239041"
   y1="490473"
   x1="242268"
   gradientUnits="userSpaceOnUse"
   id="linearGradient2235"
   xlink:href="#id0"
   inkscape:collect="always" />
<linearGradient
   y2="484461"
   x2="181012"
   y1="500428"
   x1="165045"
   gradientUnits="userSpaceOnUse"
   id="linearGradient2233"
   xlink:href="#id9"
   inkscape:collect="always" />
<linearGradient
   y2="478757"
   x2="181974"
   y1="504781"
   x1="164604"
   gradientUnits="userSpaceOnUse"
   id="linearGradient2231"
   xlink:href="#id0"
   inkscape:collect="always" />
<linearGradient
   y2="485194"
   x2="202498"
   y1="503866"
   x1="183826"
   gradientUnits="userSpaceOnUse"
   id="linearGradient2229"
   xlink:href="#id9"
   inkscape:collect="always" />
<linearGradient
   y2="479099"
   x2="205454"
   y1="508217"
   x1="182374"
   gradientUnits="userSpaceOnUse"
   id="linearGradient2227"
   xlink:href="#id0"
   inkscape:collect="always" />
<linearGradient
   y2="485423"
   x2="230850"
   y1="508226"
   x1="208047"
   gradientUnits="userSpaceOnUse"
   id="linearGradient2225"
   xlink:href="#id9"
   inkscape:collect="always" />
<linearGradient
   y2="480335"
   x2="234820"
   y1="510813"
   x1="205173"
   gradientUnits="userSpaceOnUse"
   id="linearGradient2223"
   xlink:href="#id0"
   inkscape:collect="always" />
<linearGradient
   y2="411511"
   x2="299698"
   y1="545039"
   x1="166170"
   gradientUnits="userSpaceOnUse"
   id="linearGradient2221"
   xlink:href="#id11"
   inkscape:collect="always" />
<linearGradient
   y2="423001"
   x2="202269"
   y1="423586"
   x1="191253"
   gradientUnits="userSpaceOnUse"
   id="linearGradient2219"
   xlink:href="#id14"
   inkscape:collect="always" />
<linearGradient
   y2="510247"
   x2="418557"
   y1="467734"
   x1="418557"
   gradientUnits="userSpaceOnUse"
   id="linearGradient2217"
   xlink:href="#id15"
   inkscape:collect="always" />
<linearGradient
   y2="510008"
   x2="519820"
   y1="444102"
   x1="519820"
   gradientUnits="userSpaceOnUse"
   id="linearGradient2215"
   xlink:href="#id17"
   inkscape:collect="always" />
<linearGradient
   y2="510415"
   x2="570322"
   y1="467566"
   x1="570322"
   gradientUnits="userSpaceOnUse"
   id="linearGradient2213"
   xlink:href="#id15"
   inkscape:collect="always" />

  
 <metadata
   id="CorelCorpID_0Corel-Layer" />

  <linearGradient
   y2="492236"
   x2="283106"
   y1="487973"
   x1="287369"
   gradientUnits="userSpaceOnUse"
   id="linearGradient2119"
   xlink:href="#id0"
   inkscape:collect="always" />
<linearGradient
   y2="493700"
   x2="239041"
   y1="490473"
   x1="242268"
   gradientUnits="userSpaceOnUse"
   id="linearGradient2117"
   xlink:href="#id0"
   inkscape:collect="always" />
<linearGradient
   y2="493700"
   x2="239041"
   y1="490473"
   x1="242268"
   gradientUnits="userSpaceOnUse"
   id="linearGradient2115"
   xlink:href="#id0"
   inkscape:collect="always" />
<linearGradient
   y2="492236"
   x2="283106"
   y1="487973"
   x1="287369"
   gradientUnits="userSpaceOnUse"
   id="linearGradient2113"
   xlink:href="#id0"
   inkscape:collect="always" />
<linearGradient
   y2="492236"
   x2="283106"
   y1="487973"
   x1="287369"
   gradientUnits="userSpaceOnUse"
   id="linearGradient2111"
   xlink:href="#id0"
   inkscape:collect="always" />
<linearGradient
   y2="492821"
   x2="274440"
   y1="489058"
   x1="278203"
   gradientUnits="userSpaceOnUse"
   id="linearGradient2109"
   xlink:href="#id0"
   inkscape:collect="always" />
<linearGradient
   y2="493323"
   x2="265334"
   y1="489599"
   x1="269058"
   gradientUnits="userSpaceOnUse"
   id="linearGradient2107"
   xlink:href="#id0"
   inkscape:collect="always" />
<linearGradient
   y2="493700"
   x2="239041"
   y1="490473"
   x1="242268"
   gradientUnits="userSpaceOnUse"
   id="linearGradient2105"
   xlink:href="#id0"
   inkscape:collect="always" />
<linearGradient
   y2="493700"
   x2="239041"
   y1="490473"
   x1="242268"
   gradientUnits="userSpaceOnUse"
   id="linearGradient2103"
   xlink:href="#id0"
   inkscape:collect="always" />
<linearGradient
   y2="493700"
   x2="239041"
   y1="490473"
   x1="242268"
   gradientUnits="userSpaceOnUse"
   id="linearGradient2101"
   xlink:href="#id0"
   inkscape:collect="always" />
<linearGradient
   y2="485423"
   x2="230850"
   y1="508226"
   x1="208047"
   gradientUnits="userSpaceOnUse"
   id="linearGradient2099"
   xlink:href="#id9"
   inkscape:collect="always" />
<linearGradient
   y2="510247"
   x2="418557"
   y1="467734"
   x1="418557"
   gradientUnits="userSpaceOnUse"
   id="linearGradient2097"
   xlink:href="#id15"
   inkscape:collect="always" />

 <linearGradient
   y2="510008"
   x2="519820"
   y1="444102"
   x1="519820"
   gradientUnits="userSpaceOnUse"
   id="id17">
   <stop
   id="stop46"
   style="stop-color:#03C103"
   offset="0" />

   <stop
   id="stop48"
   style="stop-color:#FFF31B"
   offset="0.380392" />

   <stop
   id="stop50"
   style="stop-color:#FF6700"
   offset="1" />

  </linearGradient>

  <linearGradient
   y2="510415"
   x2="570322"
   y1="467566"
   x1="570322"
   xlink:href="#id15"
   gradientUnits="userSpaceOnUse"
   id="id16">
  </linearGradient>

  <linearGradient
   y2="510247"
   x2="418557"
   y1="467734"
   x1="418557"
   gradientUnits="userSpaceOnUse"
   id="id15">
   <stop
   id="stop40"
   style="stop-color:#FFFE1D"
   offset="0" />

   <stop
   id="stop42"
   style="stop-color:#FF6700"
   offset="1" />

  </linearGradient>

  <linearGradient
   y2="423001"
   x2="202269"
   y1="423586"
   x1="191253"
   gradientUnits="userSpaceOnUse"
   id="id14">
   <stop
   id="stop35"
   style="stop-color:#08B508"
   offset="0" />

   <stop
   id="stop37"
   style="stop-color:#0DE00D"
   offset="1" />

  </linearGradient>

  <linearGradient
   y2="458576"
   x2="226554"
   y1="494304"
   x1="187780"
   xlink:href="#id0"
   gradientUnits="userSpaceOnUse"
   id="id13">
  </linearGradient>

  <linearGradient
   y2="484461"
   x2="181012"
   y1="500428"
   x1="165045"
   xlink:href="#id9"
   gradientUnits="userSpaceOnUse"
   id="id12">
  </linearGradient>

  <linearGradient
   y2="411511"
   x2="299698"
   y1="545039"
   x1="166170"
   gradientUnits="userSpaceOnUse"
   id="id11">
   <stop
   id="stop28"
   style="stop-color:#FF9E0C"
   offset="0" />

   <stop
   id="stop30"
   style="stop-color:#FFF82F"
   offset="1" />

  </linearGradient>

  <linearGradient
   y2="485194"
   x2="202498"
   y1="503866"
   x1="183826"
   xlink:href="#id9"
   gradientUnits="userSpaceOnUse"
   id="id10">
  </linearGradient>

  <linearGradient
   y2="485423"
   x2="230850"
   y1="508226"
   x1="208047"
   gradientUnits="userSpaceOnUse"
   id="id9">
   <stop
   id="stop22"
   style="stop-color:#D5E6ED"
   offset="0" />

   <stop
   id="stop24"
   style="stop-color:white"
   offset="1" />

  </linearGradient>

  <linearGradient
   y2="478757"
   x2="181974"
   y1="504781"
   x1="164604"
   xlink:href="#id0"
   gradientUnits="userSpaceOnUse"
   id="id8">
  </linearGradient>

  <linearGradient
   y2="479099"
   x2="205454"
   y1="508217"
   x1="182374"
   xlink:href="#id0"
   gradientUnits="userSpaceOnUse"
   id="id7">
  </linearGradient>

  <linearGradient
   y2="480335"
   x2="234820"
   y1="510813"
   x1="205173"
   xlink:href="#id0"
   gradientUnits="userSpaceOnUse"
   id="id6">
  </linearGradient>

  <linearGradient
   y2="486606"
   x2="308315"
   y1="484426"
   x1="310494"
   xlink:href="#id0"
   gradientUnits="userSpaceOnUse"
   id="id5">
  </linearGradient>

  <linearGradient
   y2="488712"
   x2="302023"
   y1="485658"
   x1="305078"
   xlink:href="#id0"
   gradientUnits="userSpaceOnUse"
   id="id4">
  </linearGradient>

  <linearGradient
   y2="493700"
   x2="239041"
   y1="490473"
   x1="242268"
   xlink:href="#id0"
   gradientUnits="userSpaceOnUse"
   id="id3">
  </linearGradient>

  <linearGradient
   y2="493323"
   x2="265334"
   y1="489599"
   x1="269058"
   xlink:href="#id0"
   gradientUnits="userSpaceOnUse"
   id="id2">
  </linearGradient>

  <linearGradient
   y2="492821"
   x2="274440"
   y1="489058"
   x1="278203"
   xlink:href="#id0"
   gradientUnits="userSpaceOnUse"
   id="id1">
  </linearGradient>

  <linearGradient
   y2="492236"
   x2="283106"
   y1="487973"
   x1="287369"
   gradientUnits="userSpaceOnUse"
   id="id0">
   <stop
   id="stop9"
   style="stop-color:#FFAF0C"
   offset="0" />

   <stop
   id="stop11"
   style="stop-color:#FFF82F"
   offset="1" />

  </linearGradient>

  <style
   id="style6"
   type="text/css">
   
    .str0 {stroke:#3F3F3F;stroke-width:7592.52}
    .fil0 {fill:none;fill-rule:nonzero}
    .fil14 {fill:#FF7A00}
    .fil4 {fill:#088C08;fill-rule:nonzero}
    .fil21 {fill:#3F3F3F;fill-rule:nonzero}
    .fil22 {fill:#7B7B7B;fill-rule:nonzero}
    .fil23 {fill:#B7B7B7;fill-rule:nonzero}
    .fil7 {fill:#FF7A00;fill-rule:nonzero}
    .fil18 {fill:url(#id0)}
    .fil17 {fill:url(#id1)}
    .fil16 {fill:url(#id2)}
    .fil15 {fill:url(#id3)}
    .fil19 {fill:url(#id4)}
    .fil20 {fill:url(#id5)}
    .fil8 {fill:url(#id6)}
    .fil10 {fill:url(#id7)}
    .fil12 {fill:url(#id8)}
    .fil9 {fill:url(#id9)}
    .fil11 {fill:url(#id10)}
    .fil6 {fill:url(#id11)}
    .fil13 {fill:url(#id12)}
    .fil24 {fill:url(#id13)}
    .fil5 {fill:url(#id14)}
    .fil3 {fill:url(#id15);fill-rule:nonzero}
    .fil1 {fill:url(#id16);fill-rule:nonzero}
    .fil2 {fill:url(#id17);fill-rule:nonzero}
   
  </style>

  </defs>
  <sodipodi:namedview
     id="base"
     pagecolor="#ffffff"
     bordercolor="#666666"
     borderopacity="1.0"
     inkscape:pageopacity="0.0"
     inkscape:pageshadow="2"
     inkscape:zoom="1.28"
     inkscape:cx="281.29225"
     inkscape:cy="117.66315"
     inkscape:document-units="px"
     inkscape:current-layer="layer2"
     width="500px"
     height="250px"
     inkscape:window-width="1494"
     inkscape:window-height="990"
     inkscape:window-x="-4"
     inkscape:window-y="-4" />
  <metadata
     id="metadata1877">
    <rdf:RDF>
      <cc:Work
         rdf:about="">
        <dc:format>image/svg+xml</dc:format>
        <dc:type
           rdf:resource="http://purl.org/dc/dcmitype/StillImage" />
      </cc:Work>
    </rdf:RDF>
  </metadata>
  <g
     id="layer1"
     inkscape:label="Layer 1"
     inkscape:groupmode="layer" />
  <g
     inkscape:groupmode="layer"
     id="layer2">
    <text
       xml:space="preserve"
       style="font-size:12.8497982px;font-style:normal;font-weight:normal;line-height:125%;fill:black;fill-opacity:1;stroke:none;stroke-width:1px;stroke-linecap:butt;stroke-linejoin:miter;stroke-opacity:1;font-family:Bitstream Vera Sans"
       x="146.46715"
       y="128.20654"
       id="text2823"
       sodipodi:linespacing="125%"><tspan
         sodipodi:role="line"
         id="tspan2825"
         x="146.46715"
         y="128.20654"
         style="font-size:38.5493927px;font-style:normal;font-variant:normal;font-weight:normal;font-stretch:normal;text-align:start;line-height:125%;writing-mode:lr-tb;text-anchor:start;fill:black;font-family:Advert">Subsonic</tspan></text>
    <text
       sodipodi:linespacing="125%"
       id="text2827"
       y="123.84682"
       x="319.03061"
       style="font-size:6.4985199px;font-style:normal;font-weight:normal;line-height:125%;fill:#6c5d53;fill-opacity:1;stroke:none;stroke-width:1px;stroke-linecap:butt;stroke-linejoin:miter;stroke-opacity:1;font-family:Bitstream Vera Sans"
       xml:space="preserve"><tspan
         style="font-size:19.49555779px;font-style:normal;font-variant:normal;font-weight:normal;font-stretch:normal;text-align:start;line-height:125%;writing-mode:lr-tb;text-anchor:start;fill:#6c5d53;font-family:Advert"
         y="123.84682"
         x="319.03061"
         id="tspan2829"
         sodipodi:role="line">| Easy Listening</tspan></text>
    <g
       style="fill-rule:evenodd"
       id="g2337"
       transform="matrix(5.22147e-4,0,0,5.22147e-4,-64.08791,-138.8891)">
      <g
         id="g70">
    <path
   style="fill:#088c08;fill-rule:nonzero"
   id="path72"
   d="M 188227,406218 L 194453.38,411027.84 L 194516.77,441043.54 L 187620.71,437360.86 L 187557.32,407345.16 L 188227.01,406217.99 L 188227,406218 z M 187557.32,407345.17 L 187555.74,406515.64 L 188227,406218 L 187557.32,407345.17 L 187557.32,407345.17 z M 203168.72,409945.96 L 196273.44,406667.22 L 200692.73,411225.49 L 200550.6,411180.21 L 200391.54,411139.66 L 200237.61,411101.47 L 200067.14,411067.62 L 199884.06,411031.79 L 199707.29,410997.54 L 199525.4,410977.85 L 199331.31,410955.41 L 199132.49,410946.75 L 198939.18,410940.06 L 198728.55,410935.73 L 198518.71,410939.66 L 198308.87,410949.9 L 198087.21,410956.99 L 197873.04,410987.69 L 197651.78,411007.77 L 197425.79,411040.84 L 197187.61,411070.37 L 196957.29,411122.34 L 196719.89,411163.29 L 196495.09,411221.16 L 196252.96,411280.61 L 196011.62,411345.17 L 195769.89,411415.65 L 195528.55,411491.63 L 195269.89,411567.62 L 195029.34,411653.44 L 194783.67,411750.29 L 194538,411851.87 L 194285.64,411940.84 L 194040.76,412051.08 L 193783.67,412155.02 L 188226.98,406218.01 L 188505.32,406088.87 L 188795.88,405974.7 L 189079.73,405847.93 L 189371.07,405742.42 L 189662.41,405641.63 L 189959.66,405539.27 L 190238.79,405438.09 L 190536.82,405346.35 L 190834.46,405259.35 L 191132.49,405178.24 L 191431.31,405102.26 L 191747.45,405036.51 L 192051.78,404966.43 L 192363.2,404918.4 L 192668.32,404860.53 L 192985.64,404819.58 L 193309.26,404778.24 L 193639.97,404760.92 L 193963.99,404733.36 L 194300.6,404723.13 L 194638,404719.98 L 194975.4,404724.31 L 195331.7,404740.45 L 195682.49,404770.37 L 196038.79,404801.47 L 196408.08,404851.08 L 196783.28,404902.65 L 197153.75,404968.4 L 197536.82,405052.65 L 197938,405150.68 L 198334.85,405262.89 L 198749.42,405387.69 L 203168.71,409945.96 L 203168.72,409945.96 z M 198749.42,405387.69 L 202817.53,406696.75 L 203168.72,409945.96 L 198749.43,405387.69 L 198749.42,405387.69 z M 205169.5,441738.09 L 199549.42,436990.45 L 196273.44,406667.25 L 203168.72,409945.99 L 206444.7,440269.19 L 205169.5,441738.09 z M 206444.7,440269.19 L 206595.89,441669.58 L 205169.51,441738.08 L 206444.71,440269.18 L 206444.7,440269.19 z M 187620.7,437360.92 L 188896.29,436093.99 L 200824.59,435521.55 L 205169.47,441738.09 L 193241.17,442310.53 L 187620.7,437360.92 z M 193241.17,442310.53 L 187631.72,442579.82 L 187620.7,437360.92 L 193241.17,442310.53 L 193241.17,442310.53 z "
   class="fil4" />

    <path
   style="fill:url(#linearGradient2219)"
   d="M 191069,439202 L 191005.61,409186.3 C 193859.55,407921.34 196749.31,407350.08 199721.36,408306.38 L 202997.34,438629.58 L 191069.04,439202.02 L 191069,439202 z "
   class="fil5"
   id="path74" />

   </g>
      <g
         id="g76">
    <path
   style="fill:url(#linearGradient2221)"
   id="path78"
   d="M 188254,449821 C 188392.98,451348.56 189052.82,452875.72 189191.4,454402.89 C 185523.68,457537.14 179257.15,457929.27 176422.9,461899.74 C 175695.74,459186.35 167710.7,456125.72 164548.9,459188.72 C 163859.14,458536.36 167333.94,459746.99 164341.42,465231.24 C 162114.25,470032.81 167672.52,471835.18 169341.81,471063.52 C 167589.05,473302.5 165679.61,475315.09 164759.92,477831.63 C 164065.83,477970.21 163788.27,478422.18 163093.78,478561.16 C 161375.28,480573.36 160091.02,482933.99 159761.5,486058.8 C 158312.68,485823.36 156668.19,486051.71 155179.61,486632.42 C 153195.36,487406.44 151913.47,488813.92 153200.87,490847.77 C 154378.04,492706.83 157426.85,492893.83 160178.04,492723.36 C 160967.41,498742.26 162414.65,501899.34 166894.58,506729.66 C 165089.46,506867.85 163787.89,507301.71 162260.72,508551.71 C 162544.19,511016.67 162409.15,513446.59 159344.97,515632.81 C 156541.82,529203.71 174887.47,522161.16 179755.17,517715.49 C 201739.47,523561.16 228331.17,532688.29 256814.27,531461.19 C 319540.67,528758.04 332657.57,478682.09 288887.47,456343.89 L 288410.31,453466.72 L 270077.21,452423.81 L 270077.21,441577.31 L 268410.28,439491.09 L 247993.78,436362.35 L 245077.24,431982.04 C 232438.64,428645.03 219799.64,428645.03 207160.34,431982.04 L 203827.27,435945.43 L 192015.47,438592.67 L 188265.47,441721.41 L 188254.05,449821.02 L 188254,449821 z "
   class="fil6" />

    <path
   style="fill:#ff7a00;fill-rule:nonzero"
   d="M 191238,456269 L 187145.09,452537.5 L 186895.48,453291.04 L 186886.82,453174.11 L 186872.26,453061.91 L 186858.48,452944.98 L 186833.67,452820.96 L 186815.17,452704.43 L 186794.7,452587.5 L 186763.59,452463.88 L 186742.73,452343.01 L 186715.56,452210.73 L 186683.28,452082.78 L 186650.21,451955.22 L 186619.5,451822.93 L 186579.74,451683.96 L 186551,451548.13 L 186510.44,451408.76 L 186473.04,451265.45 L 186435.64,451122.54 L 186401.78,450975.3 L 186356.9,450824.9 L 186324.22,450677.66 L 186284.07,450523.33 L 186247.85,450364.67 L 186209.66,450210.73 L 186176.19,450052.07 L 186139.58,449882.38 L 186109.66,449723.72 L 186076.19,449554.43 L 186045.09,449384.75 L 186025.01,449222.15 L 185998.63,449052.46 L 185978.55,448878.84 L 185958.08,448709.16 L 190550.21,450933.57 L 190558.87,451050.5 L 190573.44,451162.7 L 190587.22,451279.63 L 190612.02,451403.65 L 190630.53,451520.58 L 190651.39,451637.11 L 190678.95,451765.06 L 190702.97,451881.99 L 190734.07,452009.95 L 190762.81,452141.84 L 190795.88,452269.79 L 190826.59,452402.07 L 190866.35,452540.65 L 190894.7,452676.87 L 190935.65,452816.24 L 190973.05,452959.16 L 191010.45,453102.46 L 191043.91,453249.71 L 191089.19,453399.71 L 191121.87,453547.35 L 191162.02,453701.68 L 191198.24,453859.94 L 191232.89,454018.61 L 191269.5,454172.94 L 191310.05,454337.9 L 191336.43,454500.89 L 191369.5,454670.57 L 191400.61,454839.87 L 191420.68,455002.46 L 191447.06,455172.15 L 191467.14,455345.77 L 191487.61,455515.46 L 191238.01,456269 L 191238,456269 z M 191487.61,455515.46 L 191533.28,456016.64 L 191238,456269 L 191487.61,455515.46 L 191487.61,455515.46 z M 174178.21,461064.28 L 178667.97,462735.93 L 174268.76,460163.1 L 174572.3,459768.22 L 174891.2,459396.96 L 175228.21,459044.2 L 175581.75,458709.16 L 175956.16,458401.29 L 176336.47,458102.07 L 176735.29,457827.66 L 177146.71,457566.64 L 177568.76,457316.64 L 177990.02,457074.91 L 178424.27,456853.65 L 178867.18,456640.26 L 179308.52,456427.27 L 179760.09,456231.21 L 180208.52,456032.78 L 180664.82,455849.32 L 181115.61,455661.13 L 181564.03,455478.84 L 182012.85,455296.17 L 182457.34,455117.03 L 182899.46,454935.54 L 183327.02,454748.14 L 183762.46,454558.37 L 184177.02,454365.06 L 184584.9,454164.67 L 184994.35,453963.1 L 185382.53,453749.71 L 185761.67,453526.09 L 186125.84,453295.38 L 186487.26,453058.77 L 186823.48,452805.22 L 187145.13,452537.51 L 191238.04,456269.01 L 190857.33,456572.94 L 190462.85,456861.92 L 190066.78,457140.26 L 189650.64,457398.53 L 189227.41,457641.84 L 188794.34,457874.12 L 188364.42,458100.89 L 187918.75,458312.31 L 187466.39,458516.64 L 187024.66,458714.28 L 186566.39,458904.83 L 186117.18,459094.2 L 185665.6,459282 L 185216.78,459464.67 L 184768.36,459646.96 L 184324.66,459826.48 L 183891.98,460016.25 L 183457.73,460197.35 L 183036.07,460391.05 L 182615.99,460578.85 L 182210.88,460781.21 L 181813.63,460991.44 L 181420.72,461200.1 L 181049.85,461422.55 L 180690.4,461656.01 L 180342.77,461902.86 L 180004.18,462152.47 L 179688.04,462424.12 L 179383.32,462700.89 L 179095.13,462995.38 L 178825.05,463308.37 L 178577.41,463637.11 L 174178.2,461064.28 L 174178.21,461064.28 z M 178577.42,463637.11 L 175880.18,467415.46 L 174178.21,461064.28 L 178577.42,463637.11 z M 163414.02,460035.54 L 165684.1,458342.63 L 162474.65,457356.41 L 162842.36,457035.94 L 163240.39,456761.13 L 163665.59,456515.46 L 164126.22,456320.58 L 164593.94,456154.05 L 165099.06,456027.27 L 165604.17,455930.03 L 166141.97,455870.97 L 166675.04,455839.09 L 167236.46,455842.23 L 167792.36,455867.04 L 168356.93,455925.7 L 168935.28,456008.38 L 169509.29,456115.86 L 170089.21,456249.71 L 170664.02,456401.68 L 171236.46,456582 L 171808.11,456784.36 L 172384.49,457015.86 L 172947.09,457260.34 L 173510.87,457531.21 L 174069.13,457831.21 L 174632.13,458161.53 L 175190.39,458530.03 L 175745.12,458931.21 L 176275.83,459369.01 L 176808.11,459858.77 L 177316.38,460394.99 L 177783.31,460976.49 L 178173.07,461574.52 L 178471.1,462170.58 L 178667.95,462735.93 L 174178.19,461064.28 L 174197.09,461119.4 L 174236.07,461202.87 L 174291.19,461289.87 L 174351.03,461362.71 L 174385.28,461395.78 L 174380.56,461391.06 L 174315.99,461343.81 L 174221.11,461271.76 L 174080.16,461182.79 L 173898.27,461072.94 L 173671.5,460952.47 L 173413.23,460824.13 L 173122.29,460694.6 L 172817.56,460578.06 L 172484.49,460462.32 L 172134.1,460355.23 L 171771.89,460253.65 L 171404.57,460170.98 L 171025.83,460099.72 L 170650.63,460045.39 L 170264.81,460009.56 L 169878.98,459985.54 L 169510.47,459988.69 L 169130.16,460007.2 L 168775.83,460050.5 L 168414.02,460111.53 L 168082.92,460200.5 L 167748.27,460308.77 L 167445.12,460451.68 L 167150.63,460609.16 L 166876.22,460803.65 L 166623.47,461021.76 L 163414.02,460035.54 L 163414.02,460035.54 z M 166623.47,461021.76 L 165553,462058.77 L 163414.02,460035.54 L 166623.47,461021.76 z M 166563.23,466854.83 L 162119.92,463608.37 L 162143.15,463563.88 L 162387.64,463083.17 L 162604.17,462633.56 L 162783.7,462212.3 L 162930.94,461815.45 L 163045.12,461445.37 L 163135.27,461109.55 L 163199.45,460796.16 L 163244.33,460515.45 L 163266.38,460256.4 L 163278.19,460041.04 L 163267.95,459850.1 L 163249.45,459686.32 L 163226.22,459565.06 L 163212.05,459487.5 L 163195.12,459436.32 L 163191.18,459428.05 L 163210.47,459470.18 L 163260.86,459553.64 L 163337.24,459670.96 L 163465.59,459827.26 L 163645.9,460021.75 L 163867.16,460221.75 L 164127.4,460430.02 L 164455.35,460647.74 L 164844.33,460852.46 L 165336.06,461028.05 L 165907.71,461103.64 L 166495.9,460903.64 L 166756.93,460265.06 L 166507.71,459407.19 L 166056.53,458743.01 L 165684.09,458342.62 L 163414.01,460035.53 L 162936.06,459524.11 L 162424.25,458770.96 L 162155.35,457848.52 L 162433.7,457168.99 L 163072.28,456954.03 L 163724.25,457040.65 L 164321.49,457254.82 L 164837.24,457525.68 L 165310.08,457838.68 L 165728.58,458172.14 L 166118.34,458527.26 L 166473.46,458909.15 L 166777.4,459285.13 L 167028.58,459655.21 L 167248.26,460026.08 L 167426.61,460390.25 L 167568.34,460740.25 L 167679.76,461083.56 L 167772.67,461439.07 L 167831.33,461788.68 L 167865.59,462135.92 L 167875.03,462496.16 L 167870.31,462872.93 L 167834.88,463248.52 L 167777.4,463645.76 L 167690.39,464053.64 L 167577.4,464483.95 L 167431.73,464925.68 L 167259.29,465387.1 L 167054.56,465872.14 L 166819.13,466376.86 L 166540,466899.31 L 166563.22,466854.82 L 166563.23,466854.83 z M 162119.92,463608.37 L 162125.83,463595.37 L 162143.15,463563.88 L 162119.92,463608.37 L 162119.92,463608.37 z M 171475.43,472825.69 L 167208.5,469302.07 L 171209.29,473041.44 L 170937.24,473146.55 L 170640,473224.9 L 170330.94,473279.63 L 170004.96,473303.64 L 169655.35,473306 L 169297.87,473288.29 L 168930.16,473254.82 L 168538.03,473191.83 L 168135.27,473102.07 L 167708.9,472987.11 L 167276.22,472844.98 L 166815.98,472669.78 L 166337.24,472453.64 L 165838.42,472200.88 L 165328.98,471902.07 L 164797.48,471540.65 L 164258.11,471117.42 L 163746.3,470661.12 L 163254.57,470149.7 L 162806.54,469608.37 L 162428.98,469057.18 L 162121.89,468515.85 L 161879.37,467977.26 L 161709.68,467468.21 L 161601.81,466969.39 L 161530.55,466480.41 L 161522.28,466006 L 161549.84,465530.41 L 161627.8,465054.82 L 161746.3,464577.66 L 161910.87,464094.19 L 162119.92,463608.36 L 166563.23,466854.82 L 166399.85,467251.67 L 166278.59,467616.24 L 166193.94,467951.67 L 166147.48,468254.82 L 166124.65,468522.54 L 166135.28,468757.58 L 166149.06,468943.41 L 166187.64,469086.32 L 166221.1,469184.35 L 166234.49,469219 L 166232.13,469217.03 L 166203.39,469172.93 L 166143.55,469104.04 L 166076.22,469032.78 L 166020.32,468983.56 L 165963.62,468935.14 L 165937.64,468914.67 L 165952.6,468925.3 L 165992.36,468948.92 L 166061.66,468977.66 L 166155.75,469015.06 L 166278.98,469053.25 L 166405.36,469087.11 L 166548.27,469114.67 L 166690.79,469137.5 L 166841.97,469159.16 L 166982.92,469165.06 L 167108.11,469159.55 L 167227.8,469145.77 L 167332.13,469131.99 L 167411.26,469111.12 L 167474.65,469086.32 L 171475.44,472825.69 L 171475.43,472825.69 z M 166398.66,479879.63 L 163121.49,475784.35 L 162516.77,476268.2 L 162608.1,476014.27 L 162708.5,475759.15 L 162818.73,475517.42 L 162934.48,475278.83 L 163047.08,475035.13 L 163168.73,474805.21 L 163298.66,474573.72 L 163421.1,474340.65 L 163559.68,474112.3 L 163698.66,473890.25 L 163840.78,473669.78 L 163983.3,473454.43 L 164132.51,473236.71 L 164285.27,473020.17 L 164436.85,472809.15 L 164594.33,472594.19 L 164751.41,472384.74 L 164910.47,472175.69 L 165071.49,471967.81 L 165230.94,471763.88 L 165395.51,471556 L 165561.65,471348.91 L 165725.04,471145.37 L 165889.6,470941.83 L 166054.96,470738.28 L 166220.7,470534.35 L 166386.85,470329.62 L 166553.38,470124.11 L 166719.52,469918.21 L 166881.73,469715.06 L 167047.48,469507.18 L 167208.5,469302.06 L 171475.43,472825.68 L 171307.32,473039.46 L 171141.57,473247.34 L 170972.28,473458.36 L 170806.14,473664.27 L 170639.6,473869.78 L 170473.46,474074.5 L 170307.71,474278.44 L 170142.36,474481.98 L 169977.79,474685.53 L 169814.41,474889.07 L 169655.35,475088.28 L 169497.87,475287.5 L 169338.42,475491.43 L 169184.49,475691.43 L 169032.52,475891.83 L 168882.52,476093.4 L 168738.42,476291.04 L 168593.94,476494.19 L 168455.35,476694.19 L 168320.31,476895.37 L 168184.88,477102.06 L 168056.14,477306 L 167931.34,477511.51 L 167814.01,477714.66 L 167688.42,477917.02 L 167579.76,478124.11 L 167471.49,478337.5 L 167363.62,478541.83 L 167269.13,478756 L 167179.37,478972.54 L 167090,479180.41 L 167003.38,479395.76 L 166398.66,479879.62 L 166398.66,479879.63 z M 167003.38,479395.77 L 166860.08,479787.5 L 166398.66,479879.63 L 167003.38,479395.77 z M 165210.07,480344.19 L 160977.79,476778.84 L 161455.35,476513.88 L 161481.34,476510.73 L 161505.75,476506.01 L 161531.34,476495.77 L 161554.57,476483.57 L 161587.64,476473.33 L 161619.92,476461.52 L 161646.69,476452.86 L 161678.98,476434.75 L 161709.68,476415.85 L 161748.27,476403.25 L 161773.86,476386.72 L 161817.16,476364.28 L 161848.27,476338.69 L 161891.18,476315.46 L 161937.24,476287.9 L 161978.98,476264.28 L 162028.19,476232.78 L 162073.86,476205.22 L 162123.07,476173.33 L 162188.42,476141.05 L 162239.21,476110.73 L 162294.33,476076.48 L 162361.26,476045.38 L 162433.7,476011.13 L 162503.78,475982.39 L 162578.19,475950.1 L 162657.72,475915.06 L 162739.21,475881.21 L 162827.4,475859.95 L 162920.71,475835.54 L 163019.92,475808.76 L 163121.5,475784.36 L 166398.67,479879.64 L 166372.68,479882.78 L 166348.27,479887.51 L 166322.68,479897.75 L 166295.91,479913.49 L 166266.38,479919.79 L 166238.03,479927.27 L 166207.72,479940.66 L 166175.44,479958.38 L 166147.88,479972.94 L 166117.96,479993.02 L 166077.01,480010.74 L 166033.31,480033.18 L 166005.75,480054.44 L 165962.84,480077.67 L 165917.17,480105.23 L 165875.04,480128.85 L 165826.22,480160.34 L 165780.16,480187.9 L 165730.95,480219.79 L 165669.14,480247.75 L 165618.74,480278.85 L 165548.27,480314.28 L 165489.22,480352.08 L 165420.71,480382 L 165350.63,480411.13 L 165272.68,480447.35 L 165196.3,480478.06 L 165118.35,480507.98 L 165026.62,480533.57 L 164933.31,480557.98 L 164834.1,480584.75 L 164732.52,480609.16 L 165210.08,480344.2 L 165210.07,480344.19 z M 160977.79,476778.84 L 161152.2,476574.51 L 161455.35,476513.88 L 160977.79,476778.84 L 160977.79,476778.84 z M 160818.74,488107.54 L 158704.57,484010.69 L 157467.56,484707.94 L 157503.78,484398.1 L 157544.72,484091.8 L 157591.57,483790.62 L 157647.09,483489.43 L 157704.17,483196.13 L 157766.77,482907.15 L 157842.36,482629.2 L 157914.8,482348.49 L 157991.57,482071.32 L 158082.13,481804.79 L 158168.35,481535.5 L 158259.68,481269.36 L 158360.08,481018.18 L 158467.95,480766.21 L 158572.28,480510.69 L 158688.82,480265.42 L 158797.87,480020.54 L 158922.28,479782.35 L 159047.48,479550.85 L 159179.76,479318.17 L 159303.78,479085.5 L 159443.54,478859.12 L 159583.31,478639.04 L 159726.22,478422.11 L 159872.68,478207.54 L 160022.28,477995.73 L 160174.64,477786.68 L 160330.16,477579.59 L 160489.21,477375.26 L 160650.63,477172.9 L 160814.41,476972.9 L 160977.79,476778.8 L 165210.07,480344.15 L 165053.78,480529.59 L 164903.38,480713.05 L 164756.14,480898.88 L 164611.26,481086.67 L 164469.92,481277.23 L 164330.94,481469.75 L 164195.51,481665.02 L 164063.22,481863.05 L 163933.7,482063.45 L 163808.11,482266.2 L 163689.6,482468.17 L 163562.44,482670.14 L 163451.41,482877.62 L 163340.39,483092.58 L 163236.45,483306.36 L 163125.03,483520.53 L 163028.97,483740.61 L 162929.37,483957.54 L 162841.96,484184.31 L 162755.74,484418.96 L 162669.13,484645.73 L 162586.85,484876.44 L 162517.55,485117.78 L 162444.72,485356.36 L 162377,485598.49 L 162321.89,485851.25 L 162264.01,486101.64 L 162210.86,486355.58 L 162166.37,486609.51 L 162124.25,486872.11 L 162087.24,487139.04 L 162055.74,487410.3 L 160818.73,488107.54 L 160818.74,488107.54 z M 162055.75,487410.3 L 161962.44,488293.37 L 160818.74,488107.54 L 162055.75,487410.3 L 162055.75,487410.3 z M 156990.79,488626.84 L 153368.74,484638.65 L 153368.74,484638.65 L 153515.59,484576.84 L 153675.04,484520.15 L 153832.12,484469.36 L 153981.73,484413.85 L 154143.15,484363.45 L 154302.2,484319.75 L 154461.65,484277.23 L 154616.77,484226.84 L 154776.61,484189.04 L 154940.79,484149.67 L 155101.81,484117 L 155266.77,484081.96 L 155427.4,484053.61 L 155600.63,484030.38 L 155765.59,484002.43 L 155927.01,483981.17 L 156094.72,483954 L 156264.01,483944.56 L 156428.58,483926.05 L 156604.17,483913.06 L 156775.83,483906.76 L 156939.21,483896.13 L 157110.08,483894.95 L 157284.09,483891.8 L 157465.2,483898.49 L 157634.09,483904.79 L 157806.14,483909.52 L 157985.28,483923.69 L 158163.62,483941.01 L 158340.79,483960.7 L 158525.83,483989.44 L 158704.57,484010.7 L 160818.74,488107.55 L 160725.04,488087.07 L 160634.48,488080.38 L 160535.27,488069.36 L 160434.09,488060.7 L 160332.91,488055.18 L 160222.28,488044.95 L 160107.71,488041.8 L 160003.78,488043.77 L 159891.18,488041.41 L 159774.64,488045.74 L 159649.05,488045.34 L 159530.94,488054.79 L 159416.77,488062.27 L 159290,488069.75 L 159167.95,488090.22 L 159044.33,488098.49 L 158913.62,488117.39 L 158786.45,488134.32 L 158667.56,488159.91 L 158536.85,488185.89 L 158409.68,488209.91 L 158279.37,488240.22 L 158152.99,488268.57 L 158023.07,488303.22 L 157889.21,488329.2 L 157760.47,488368.57 L 157632.12,488409.91 L 157507.71,488449.28 L 157372.28,488488.26 L 157245.9,488535.89 L 157124.25,488581.56 L 156990.78,488626.84 L 156990.78,488626.84 L 156990.79,488626.84 z M 155089.61,490909.91 L 151312.44,490786.29 L 151312.44,490786.29 L 151101.02,490444.16 L 150919.92,490104.4 L 150772.68,489778.41 L 150643.54,489451.64 L 150544.72,489142.59 L 150467.16,488844.16 L 150419.53,488563.06 L 150389.21,488297.31 L 150382.91,488037.86 L 150390.39,487797.71 L 150417.56,487567.39 L 150464.01,487348.1 L 150526.61,487144.16 L 150595.9,486947.71 L 150672.68,486758.73 L 150767.16,486580.78 L 150879.76,486413.45 L 150998.27,486254 L 151118.34,486106.37 L 151250.63,485958.73 L 151387.64,485818.57 L 151532.12,485681.96 L 151693.15,485556.37 L 151861.26,485434.32 L 152023.86,485313.06 L 152201.81,485202.43 L 152385.67,485095.74 L 152572.28,484997.31 L 152763.62,484901.64 L 152960.86,484810.3 L 153162.44,484722.51 L 153368.74,484638.65 L 156990.79,488626.84 L 156829.37,488691.8 L 156671.89,488759.91 L 156519.53,488832.35 L 156372.28,488908.34 L 156230.55,488987.86 L 156097.88,489067 L 155971.89,489150.07 L 155843.94,489229.6 L 155734.1,489315.42 L 155632.13,489405.58 L 155529.37,489491.8 L 155434.1,489582.35 L 155350.63,489671.72 L 155272.28,489769.75 L 155209.69,489862.27 L 155160.08,489954.79 L 155111.26,490044.56 L 155064.41,490130.38 L 155031.34,490215.82 L 155012.05,490300.86 L 154999.45,490378.42 L 154989.61,490452.82 L 154982.91,490523.69 L 154986.85,490583.14 L 154991.18,490643.38 L 155004.17,490696.13 L 155012.44,490738.65 L 155026.22,490777.63 L 155037.24,490806.76 L 155058.5,490843.77 L 155074.25,490874.08 L 155089.61,490909.91 L 155089.61,490909.91 L 155089.61,490909.91 z M 162465.59,493778.81 L 157890.79,491668.57 L 161641.58,494794.55 L 161371.11,494806.75 L 161095.91,494820.53 L 160819.53,494831.95 L 160542.76,494840.22 L 160262.05,494850.06 L 159977.01,494845.34 L 159688.82,494841.01 L 159402.21,494832.74 L 159116.78,494820.93 L 158829.37,494808.72 L 158536.07,494785.1 L 158245.91,494756.75 L 157946.3,494720.53 L 157650.63,494679.2 L 157358.11,494632.35 L 157050.63,494570.14 L 156743.55,494506.36 L 156433.31,494429.2 L 156108.11,494335.49 L 155780.95,494228.41 L 155431.34,494097.7 L 155080.16,493952.82 L 154710.48,493779.19 L 154315.6,493570.14 L 153918.75,493331.56 L 153499.85,493052.42 L 153084.1,492738.64 L 152678.59,492396.52 L 152275.83,492004.39 L 151909.3,491604 L 151591.97,491199.27 L 151312.45,490786.28 L 155089.62,490909.9 L 155041.58,490835.49 L 154977.02,490750.45 L 154883.71,490651.64 L 154773.08,490542.19 L 154679.38,490465.41 L 154592.77,490399.67 L 154520.32,490352.03 L 154486.47,490328.41 L 154469.54,490319.35 L 154493.55,490329.98 L 154549.46,490354.39 L 154620.32,490378.8 L 154725.44,490412.66 L 154845.13,490447.3 L 154990.01,490485.1 L 155148.28,490523.68 L 155314.81,490552.03 L 155505.76,490584.71 L 155699.85,490611.87 L 155897.88,490633.92 L 156110.87,490653.6 L 156326.23,490668.56 L 156552.21,490686.28 L 156783.31,490694.94 L 157016.39,490700.06 L 157250.24,490701.24 L 157488.04,490694.94 L 157730.95,490696.12 L 157977.01,490690.22 L 158222.68,490681.95 L 158467.96,490670.53 L 158714.81,490652.82 L 162465.6,493778.8 L 162465.59,493778.81 z M 158714.8,490652.83 L 162028.58,490447.32 L 162465.59,493778.82 L 158714.8,490652.84 L 158714.8,490652.83 z M 168377,508795.33 L 165412.43,504664.62 L 165514.4,507328.4 L 165068.73,506837.06 L 164628.57,506352.02 L 164217.15,505877.61 L 163805.34,505396.9 L 163412.82,504918.56 L 163032.9,504449.66 L 162675.03,503977.61 L 162320.3,503506.75 L 161991.17,503041.79 L 161671.49,502567.77 L 161361.25,502099.66 L 161076.21,501635.09 L 160798.65,501159.11 L 160538.42,500693.36 L 160293.14,500221.71 L 160064.01,499758.32 L 159848.65,499287.46 L 159643.93,498812.26 L 159457.71,498339.03 L 159277.79,497863.83 L 159114.79,497388.64 L 158960.07,496905.57 L 158814.01,496415.01 L 158680.54,495925.25 L 158554.56,495426.04 L 158443.93,494922.49 L 158339.2,494407.53 L 158237.24,493883.52 L 158141.17,493346.51 L 158046.29,492799.27 L 157968.34,492239.42 L 157890.78,491668.56 L 162465.58,493778.8 L 162539.99,494319.74 L 162622.67,494840.21 L 162697.86,495343.36 L 162782.11,495827.62 L 162871.48,496298.09 L 162970.7,496752.42 L 163076.6,497194.54 L 163180.54,497618.95 L 163291.96,498033.13 L 163406.52,498426.83 L 163528.97,498812.26 L 163660.46,499189.82 L 163792.35,499553.99 L 163937.63,499907.54 L 164084.08,500249.66 L 164241.17,500586.67 L 164405.74,500924.86 L 164576.21,501249.27 L 164755.34,501575.65 L 164941.56,501890.21 L 165145.5,502215.41 L 165350.23,502538.64 L 165572.27,502859.11 L 165812.43,503193.36 L 166055.34,503528.01 L 166325.03,503869.35 L 166602.59,504223.28 L 166899.04,504579.58 L 167208.49,504946.12 L 167550.62,505333.91 L 167898.65,505726.83 L 168275.03,506131.55 L 168377,508795.33 L 168377,508795.33 z M 168275.03,506131.55 L 170588.42,508626.04 L 168377,508795.33 L 168275.03,506131.55 L 168275.03,506131.55 z M 164554.56,509633.91 L 159967.16,507470.13 L 160233.3,506680.76 L 160382.91,506557.53 L 160530.94,506439.42 L 160678.18,506325.64 L 160836.45,506218.95 L 160982.12,506113.83 L 161130.54,506009.11 L 161283.3,505919.34 L 161430.94,505823.28 L 161586.06,505737.85 L 161733.3,505648.87 L 161888.42,505571.31 L 162044.32,505497.3 L 162191.96,505420.13 L 162351.41,505348.87 L 162508.5,505285.48 L 162665.98,505225.64 L 162827.79,505165.01 L 162987.24,505111.47 L 163147.47,505060.68 L 163312.44,505008.71 L 163475.43,504964.23 L 163643.14,504918.16 L 163817.55,504886.27 L 163985.27,504849.66 L 164154.56,504815.41 L 164326.61,504783.52 L 164508.5,504761.08 L 164681.33,504737.85 L 164859.68,504713.04 L 165037.24,504694.15 L 165221.1,504672.89 L 165412.44,504664.62 L 168377.01,508795.33 L 168232.91,508814.62 L 168086.85,508824.86 L 167940,508841.39 L 167798.66,508855.17 L 167656.53,508876.04 L 167528.97,508900.84 L 167394.72,508921.71 L 167262.44,508944.93 L 167132.52,508970.53 L 167012.44,509005.56 L 166888.82,509032.73 L 166763.62,509066.19 L 166642.75,509098.48 L 166520.31,509138.24 L 166398.66,509180.76 L 166280.94,509222.49 L 166161.26,509271.31 L 166041.97,509323.68 L 165926.61,509375.25 L 165800.23,509428.01 L 165682.12,509491 L 165564.01,509557.53 L 165438.03,509621.31 L 165319.92,509695.72 L 165193.54,509767.38 L 165071.5,509853.99 L 164943.54,509934.31 L 164812.05,510022.1 L 164691.57,510117.77 L 164558.5,510215.01 L 164423.86,510316.59 L 164288.42,510423.28 L 164554.57,509633.91 L 164554.56,509633.91 z M 159967.16,507470.13 L 159906.92,506947.69 L 160233.3,506680.76 L 159967.16,507470.13 L 159967.16,507470.13 z M 161628.18,517081.55 L 157062.04,514184.7 L 157353.77,513735.49 L 157610.07,513539.82 L 157858.5,513349.27 L 158078.57,513154.39 L 158290.78,512965.8 L 158488.42,512775.65 L 158670.7,512583.91 L 158841.96,512387.46 L 158996.29,512192.97 L 159133.3,512002.81 L 159260.86,511806.35 L 159372.28,511613.83 L 159479.76,511426.83 L 159579.36,511234.31 L 159664.4,511045.72 L 159738.42,510855.96 L 159802.59,510665.01 L 159860.07,510469.74 L 159904.95,510277.61 L 159949.05,510091.78 L 159979.76,509893.75 L 160011.25,509702.81 L 160034.87,509510.29 L 160042.75,509310.68 L 160052.98,509117.38 L 160060.46,508919.34 L 160062.43,508721.31 L 160050.62,508515.41 L 160045.9,508312.26 L 160025.03,508105.56 L 160015.98,507897.3 L 159991.17,507686.27 L 159967.16,507470.13 L 164554.56,509633.91 L 164580.94,509879.97 L 164601.01,510130.37 L 164629.75,510382.73 L 164639.6,510636.67 L 164656.13,510892.57 L 164656.92,511145.72 L 164660.46,511405.17 L 164658.49,511664.62 L 164646.68,511927.22 L 164619.91,512181.94 L 164594.71,512443.75 L 164561.64,512704.78 L 164512.83,512957.93 L 164460.07,513221.71 L 164389.99,513477.61 L 164314.4,513728.79 L 164225.03,513983.52 L 164125.82,514237.06 L 164015.58,514489.42 L 163897.86,514737.06 L 163765.19,514987.85 L 163611.25,515230.76 L 163449.05,515468.16 L 163270.31,515708.71 L 163081.33,515944.15 L 162881.72,516174.46 L 162664.79,516407.14 L 162432.51,516639.03 L 162184.87,516869.35 L 161913.61,517091.79 L 161637.63,517315.41 L 161336.45,517530.76 L 161628.18,517081.55 L 161628.18,517081.55 z M 157062.04,514184.7 L 157120.31,513902.02 L 157353.77,513735.49 L 157062.04,514184.7 L 157062.04,514184.7 z M 178949.44,515722.1 L 180561.25,519709.5 L 181815.58,519565.01 L 181288.02,520010.68 L 180696.29,520474.46 L 180033.3,520933.91 L 179314.01,521391.78 L 178544.71,521842.97 L 177723.85,522292.97 L 176866.37,522728.4 L 175973.85,523149.26 L 175053.77,523551.23 L 174107.31,523934.7 L 173145.9,524290.21 L 172166.76,524607.53 L 171181.33,524893.36 L 170199.83,525139.03 L 169212.43,525341.79 L 168228.97,525493.75 L 167256.52,525589.42 L 166285.66,525626.82 L 165306.13,525587.45 L 164321.09,525470.92 L 163303.77,525245.72 L 162213.61,524861.86 L 161008.89,524252.42 L 159769.52,523361.86 L 158640.39,522238.63 L 157815.19,521078 L 157272.28,519958.71 L 156954.17,518886.27 L 156784.49,517802.41 L 156761.26,516679.58 L 156851.42,515475.25 L 157062.05,514184.7 L 161628.19,517081.55 L 161434.88,518216.2 L 161356.53,519204 L 161386.85,520048.88 L 161480.94,520716.2 L 161623.46,521187.86 L 161726.22,521413.45 L 161717.56,521407.15 L 161564.8,521256.36 L 161447.48,521164.24 L 161499.45,521188.65 L 161786.45,521281.17 L 162254.17,521385.1 L 162850.23,521458.33 L 163535.27,521477.23 L 164299.05,521450.06 L 165118.74,521367.78 L 165972.28,521235.5 L 166854.17,521057.15 L 167760.86,520833.53 L 168671.49,520569.75 L 169582.12,520265.81 L 170492.36,519937.86 L 171386.85,519581.95 L 172262.83,519199.67 L 173110.47,518797.7 L 173923.86,518381.95 L 174692.75,517959.51 L 175417.95,517527.23 L 176085.27,517096.91 L 176690,516673.69 L 177232.91,516268.17 L 177695.12,515866.6 L 178949.45,515722.11 L 178949.44,515722.1 z M 177695.11,515866.59 L 178100.62,515496.51 L 178949.44,515722.1 L 177695.11,515866.59 L 177695.11,515866.59 z M 255377.81,529392.19 L 258251.04,533530.77 L 258251.04,533530.77 L 255555.76,533618.56 L 252860.09,533645.73 L 250188.83,533619.35 L 247521.51,533533.13 L 244875.45,533403.21 L 242238.05,533214.23 L 239619.94,532990.61 L 237007.74,532716.6 L 234414.43,532397.3 L 231844.74,532047.3 L 229282.54,531654.78 L 226745.53,531235.89 L 224217.58,530779.19 L 221715.22,530301.24 L 219234.12,529793.76 L 216760.1,529259.9 L 214316.79,528708.33 L 211892.77,528138.25 L 209501.04,527555.57 L 207117.58,526956.75 L 204767.19,526350.06 L 202430.18,525728.01 L 200123.49,525107.15 L 197847.51,524490.22 L 195586.09,523865.41 L 193360.11,523245.34 L 191149.87,522622.5 L 188980.58,522020.14 L 186828.22,521420.14 L 184712.87,520834.71 L 182615.63,520256.75 L 180561.3,519709.51 L 178949.49,515722.11 L 181043.98,516289.04 L 183148.31,516859.12 L 185287.29,517450.06 L 187439.65,518050.06 L 189625.48,518665.81 L 191819.18,519275.26 L 194045.16,519895.34 L 196282.96,520514.63 L 198551.86,521139.43 L 200834.93,521754.79 L 203131.78,522357.15 L 205458.55,522958.33 L 207794.77,523546.12 L 210162.88,524123.29 L 212539.65,524681.56 L 214935.71,525222.11 L 217338.86,525738.64 L 219772.72,526235.1 L 222220.75,526709.9 L 224678.62,527150.06 L 227161.3,527565.81 L 229652.64,527941.79 L 232167.99,528288.64 L 234690.43,528590.61 L 237224.68,528855.96 L 239782.16,529085.1 L 242348.7,529257.54 L 244933.35,529392.97 L 247522.72,529470.53 L 250133.35,529501.63 L 252743.98,529474.47 L 255377.84,529392.18 L 255377.84,529392.18 L 255377.81,529392.19 z M 286600.61,455339.09 L 291174.63,457349.33 L 288807.31,454633.58 L 293023.85,456963.5 L 296930.94,459482.4 L 300527,462180.43 L 303784.09,465028.07 L 306697.48,468019.41 L 309254.96,471122.17 L 311423.07,474279.26 L 313223.46,477487.53 L 314648.26,480710.76 L 315721.88,483940.68 L 316433.3,487160.76 L 316808.89,490362.33 L 316853.77,493543.83 L 316569.52,496691.07 L 315960.46,499785.56 L 315034.08,502825.32 L 313786.84,505800.52 L 312236.05,508696.19 L 310359.28,511493.04 L 308177.78,514187.13 L 305689.98,516768.23 L 302888.41,519216.26 L 299786.05,521520.2 L 296373.06,523663.11 L 292658.49,525638.7 L 288644.32,527432.79 L 284322.67,529024.52 L 279707.32,530404.05 L 274784.09,531557.59 L 269569.92,532470.97 L 264058.9,533138.69 L 258251.03,533530.82 L 255377.8,529392.24 L 261040,529004.84 L 266414.8,528364.68 L 271499.84,527470.19 L 276286.85,526344.21 L 280789.61,524997.75 L 284991.58,523446.96 L 288902.6,521707.98 L 292514.02,519787.51 L 295824.65,517699.71 L 298840.4,515465.06 L 301548.27,513094.98 L 303959.69,510605.22 L 306064.02,508002.46 L 307857.33,505305.61 L 309357.72,502537.5 L 310540.4,499706.4 L 311419.54,496824.9 L 311990.01,493910.73 L 312255.36,490988.68 L 312218.36,488068.6 L 311876.62,485163.88 L 311234.5,482299.71 L 310313.63,479495.77 L 309101.43,476762.31 L 307619.93,474119.4 L 305858.12,471557.59 L 303834.5,469101.29 L 301514.03,466720.98 L 298881.35,464411.92 L 295928.59,462196.57 L 292625.44,460071.37 L 288967.96,458054.83 L 286600.64,455339.08 L 286600.61,455339.09 z M 288967.93,458054.84 L 286873.84,456985.94 L 286600.61,455339.09 L 288967.93,458054.84 L 288967.93,458054.84 z M 287143.52,451398.15 L 290697.46,454472.17 L 291174.62,457349.34 L 286600.6,455339.1 L 286123.44,452461.93 L 287143.52,451398.15 z M 287143.52,451398.15 L 290216.75,451572.95 L 290697.46,454472.16 L 287143.52,451398.14 L 287143.52,451398.15 z M 267770.72,451189.49 L 268810.48,450355.23 L 287143.58,451398.14 L 289677.44,455535.94 L 271344.34,454493.03 L 267770.72,451189.5 L 267770.72,451189.49 z M 271344.34,454493.03 L 267770.72,454289.88 L 267770.72,451189.49 L 271344.34,454493.03 L 271344.34,454493.03 z M 271693.55,441255.23 L 272384.1,442812.32 L 272384.1,453658.82 L 267770.71,451189.53 L 267770.71,440343.03 L 271693.54,441255.23 L 271693.55,441255.23 z M 271693.55,441255.23 L 272384.1,442119.4 L 272384.1,442812.31 L 271693.55,441255.22 L 271693.55,441255.23 z M 267338.04,437444.21 L 270026.62,439169.01 L 271693.55,441255.23 L 268461.27,441900.11 L 266794.34,439813.89 L 267338.04,437444.2 L 267338.04,437444.21 z M 267338.04,437444.21 L 268831.35,437672.95 L 270026.63,439169.01 L 267338.05,437444.21 L 267338.04,437444.21 z M 246154.54,436377.28 L 246921.47,434315.47 L 267337.97,437444.21 L 269482.85,441538.7 L 249066.35,438409.96 L 246154.54,436377.28 L 246154.54,436377.28 z M 249066.35,438409.96 L 247330.92,438143.81 L 246154.54,436377.27 L 249066.35,438409.95 L 249066.35,438409.96 z M 244271.47,429988.7 L 246916.75,431967.83 L 249833.29,436348.14 L 246154.55,436377.27 L 243238.01,431996.96 L 244271.47,429988.69 L 244271.47,429988.7 z M 244271.47,429988.7 L 245882.1,430413.89 L 246916.75,431967.83 L 244271.47,429988.7 L 244271.47,429988.7 z M 209280.17,433760.75 L 205040.8,430204.06 L 205453.79,429948.15 L 206654.18,429643.82 L 207857.33,429354.84 L 209057.72,429089.88 L 210261.66,428839.88 L 211465.2,428609.57 L 212665.2,428402.48 L 213869.14,428211.14 L 215081.34,428046.57 L 216284.88,427894.61 L 217488.42,427761.93 L 218700.62,427656.02 L 219912.82,427569.41 L 221115.97,427495.39 L 222328.17,427447.76 L 223540.37,427420.2 L 224755.72,427407.6 L 225967.92,427419.02 L 227179.73,427449.72 L 228391.54,427500.12 L 229607.29,427565.87 L 230819.1,427655.63 L 232042.72,427767.44 L 233254.92,427895.79 L 234478.54,428046.57 L 235699.01,428221.38 L 236923.03,428411.53 L 238142.72,428625.31 L 239366.74,428854.45 L 240586.82,429107.6 L 241819.1,429382.4 L 243039.18,429674.53 L 244271.46,429988.7 L 245883.27,433976.1 L 244745.47,433683.97 L 243596.26,433409.17 L 242458.46,433156.41 L 241309.25,432920.59 L 240163.19,432700.12 L 239013.58,432502.87 L 237867.52,432321.38 L 236717.91,432163.9 L 235572.24,432021.77 L 234414.37,431895.79 L 233267.91,431792.64 L 232110.43,431706.02 L 230956.1,431634.76 L 229798.62,431587.52 L 228640.35,431559.96 L 227482.48,431551.69 L 226328.54,431558.78 L 225170.67,431589.49 L 224012.8,431639.49 L 222846.66,431702.48 L 221688.79,431792.24 L 220530.92,431901.3 L 219365.17,432022.95 L 218198.63,432163.9 L 217040.76,432331.61 L 215874.62,432511.93 L 214705.33,432715.86 L 213538.79,432935.16 L 212372.65,433174.13 L 211202.96,433436.73 L 210036.82,433714.68 L 208867.13,434016.65 L 209280.13,433760.75 L 209280.17,433760.75 z M 205040.8,430204.06 L 205199.46,430015.08 L 205453.79,429948.15 L 205040.8,430204.06 L 205040.8,430204.06 z M 205496.71,437991.07 L 201707.73,434167.45 L 205040.8,430204.06 L 209280.17,433760.75 L 205947.1,437724.14 L 205496.7,437991.07 L 205496.71,437991.07 z M 205947.1,437724.14 L 205775.06,437928.86 L 205496.71,437991.07 L 205947.1,437724.14 L 205947.1,437724.14 z M 189981,436730.04 L 190346.36,436547.76 L 202158.16,433900.52 L 205496.74,437991.07 L 193684.94,440638.31 L 189981,436730.04 L 189981,436730.04 z M 189981,436730.04 L 190145.57,436592.64 L 190346.36,436547.76 L 189981,436730.04 L 189981,436730.04 z M 185962.1,440483.19 L 186231,439858.78 L 189981,436730.04 L 194050.29,440456.02 L 190300.29,443584.76 L 185962.1,440483.19 L 185962.1,440483.19 z M 185962.1,440483.19 L 185962.5,440082.8 L 186231,439858.78 L 185962.1,440483.19 L 185962.1,440483.19 z M 185958.17,448709.17 L 185950.69,448582.8 L 185962.1,440483.19 L 190569.19,442960.36 L 190557.78,451059.97 L 185958.17,448709.18 L 185958.17,448709.17 z M 185958.17,448709.17 L 185950.69,448626.1 L 185950.69,448582.8 L 185958.17,448709.17 L 185958.17,448709.17 z "
   class="fil7"
   id="path80" />

   </g>
      <g
         id="g82">
    <path
   style="fill:url(#linearGradient2223)"
   id="path84"
   d="M 219202,479202 C 226845.31,479202 233399.6,486533.89 233838.2,495574 C 234276.78,504614.94 228434.26,511946.8 220790.6,511946.8 C 213146.9,511946.8 206592.6,504614.91 206154,495574 C 205715.42,486533.84 211557.94,479202 219202,479202 z "
   class="fil8" />

    <g
   id="g86">
     <path
   style="fill:url(#linearGradient2225)"
   id="path88"
   d="M 219448,484413 C 225121.23,484413 229722,489970.87 229722,496823.6 C 229722,503676.75 225121.21,509234.6 219448,509234.6 C 213774.77,509234.6 209174,503676.73 209174,496823.6 C 209174,489970.84 213774.79,484413 219448,484413 z "
   class="fil9" />

     <path
   style="fill:#ff7a00;fill-rule:nonzero"
   d="M 231640,498202 L 227805.35,495445.31 L 227805.35,495445.31 L 227797.48,494829.96 L 227754.17,494219.33 L 227693.93,493621.29 L 227605.74,493037.44 L 227501.41,492468.54 L 227363.22,491909.09 L 227217.55,491372.48 L 227046.29,490852.79 L 226860.47,490353.18 L 226656.92,489878.78 L 226440.39,489426.02 L 226224.25,489009.48 L 225991.96,488620.9 L 225768.34,488276.02 L 225549.05,487968.15 L 225346.69,487712.63 L 225173.07,487511.06 L 225023.85,487357.12 L 224912.44,487250.43 L 224805.35,487156.73 L 224703.78,487079.17 L 224586.06,486998.07 L 224421.49,486894.13 L 224202.99,486777.59 L 223931.33,486647.67 L 223612.44,486515.39 L 223256.14,486398.46 L 222861.25,486285.86 L 222439.21,486194.92 L 221990.39,486126.41 L 221525.43,486085.08 L 221043.93,486071.3 L 217853.38,482754.76 L 218429.37,482773.26 L 219007.71,482827.99 L 219587.24,482916.96 L 220177,483044.91 L 220775.82,483209.48 L 221394.33,483427.2 L 222030.55,483684.68 L 222691.96,483999.64 L 223383.7,484379.95 L 224104.96,484824.05 L 224847.87,485341.37 L 225579.36,485909.48 L 226278.58,486507.91 L 226942.75,487138.22 L 227539.21,487763.81 L 228079.76,488384.28 L 228557.71,488990.98 L 228984.09,489583.89 L 229370.7,490176.8 L 229711.65,490761.45 L 230029.37,491352 L 230308.11,491938.61 L 230558.11,492534.28 L 230784.09,493133.89 L 230980.55,493741.76 L 231158.5,494357.91 L 231296.69,494976.41 L 231422.28,495608.3 L 231514.41,496246.49 L 231584.88,496890.98 L 231621.1,497540.19 L 231640,498202 L 231640,498202 L 231640,498202 z M 221043.9,510892.9 L 217853.35,507576.36 L 217853.35,507576.36 L 218343.9,507561.4 L 218836.03,507518.49 L 219321.07,507445.26 L 219799.81,507338.56 L 220278.15,507207.07 L 220747.44,507046.83 L 221208.47,506856.68 L 221665.95,506645.26 L 222104.53,506401.56 L 222538.39,506138.57 L 222954.14,505841.72 L 223363.19,505527.94 L 223759.25,505190.53 L 224139.57,504830.69 L 224506.89,504447.62 L 224858.47,504042.9 L 225191.54,503620.45 L 225508.86,503176.75 L 225806.5,502716.52 L 226087.6,502236.6 L 226347.44,501741.71 L 226589.57,501228.72 L 226816.34,500708.25 L 227016.74,500164.94 L 227200.2,499616.52 L 227354.92,499048.41 L 227493.11,498474 L 227600.59,497882.66 L 227690.75,497286.2 L 227756.11,496680.3 L 227793.9,496066.91 L 227805.32,495445.26 L 231639.97,498201.95 L 231624.61,498857.46 L 231582.88,499504.7 L 231517.53,500140.53 L 231427.37,500766.12 L 231304.93,501375.57 L 231166.74,501979.11 L 230997.84,502564.55 L 230813.59,503142.89 L 230602.17,503699.59 L 230375.4,504249.19 L 230122.25,504775.57 L 229848.24,505287.77 L 229556.11,505781.08 L 229243.51,506258.64 L 228915.17,506715.73 L 228567.92,507155.49 L 228205.32,507572.81 L 227826.98,507969.27 L 227431.7,508346.44 L 227021.47,508701.16 L 226597.45,509033.05 L 226152.57,509334.63 L 225700.6,509619.66 L 225228.94,509872.81 L 224753.35,510106.28 L 224259.26,510305.89 L 223753.75,510480.29 L 223238.39,510625.96 L 222705.32,510738.17 L 222162.02,510822.42 L 221610.83,510875.57 L 221043.91,510892.89 L 221043.91,510892.89 L 221043.9,510892.9 z M 207257.3,495445.3 L 211091.95,498201.99 L 211091.95,498201.99 L 211099.82,498817.34 L 211143.13,499428.37 L 211203.37,500026.01 L 211291.56,500609.86 L 211395.89,501178.76 L 211534.08,501738.21 L 211679.75,502275.22 L 211851.01,502794.51 L 212036.83,503294.51 L 212240.38,503768.92 L 212456.91,504221.67 L 212673.05,504638.21 L 212905.34,505026.79 L 213128.96,505371.67 L 213348.25,505679.55 L 213550.61,505935.06 L 213724.23,506136.64 L 213873.45,506290.57 L 213984.86,506397.27 L 214091.95,506490.97 L 214193.52,506568.53 L 214311.24,506649.63 L 214475.81,506753.57 L 214694.31,506870.1 L 214965.97,507000.02 L 215284.86,507132.3 L 215641.16,507249.23 L 216036.05,507361.83 L 216458.09,507452.78 L 216906.91,507521.28 L 217371.87,507562.62 L 217853.37,507576.4 L 221043.92,510892.94 L 220467.93,510874.43 L 219889.59,510819.71 L 219310.06,510730.73 L 218720.3,510602.78 L 218121.48,510438.21 L 217502.97,510220.5 L 216866.75,509963.02 L 216205.34,509648.06 L 215513.6,509267.74 L 214792.34,508823.65 L 214049.43,508306.32 L 213317.94,507738.21 L 212618.72,507139.79 L 211954.55,506509.47 L 211358.09,505883.88 L 210817.54,505263.41 L 210339.59,504656.72 L 209913.21,504063.8 L 209526.6,503470.89 L 209185.65,502886.25 L 208867.93,502295.69 L 208589.19,501709.08 L 208339.19,501113.41 L 208113.21,500513.41 L 207916.75,499905.93 L 207738.8,499289.4 L 207600.61,498670.89 L 207475.02,498039 L 207382.89,497400.81 L 207312.42,496756.72 L 207276.2,496107.11 L 207257.3,495445.3 L 207257.3,495445.3 L 207257.3,495445.3 z M 217853.4,482754.7 L 221043.95,486071.24 L 221043.95,486071.24 L 220553.4,486086.2 L 220061.27,486129.11 L 219576.23,486202.34 L 219097.49,486309.04 L 218619.15,486440.53 L 218149.86,486600.77 L 217688.83,486790.92 L 217231.35,487002.34 L 216792.77,487246.04 L 216358.91,487509.03 L 215943.16,487805.88 L 215534.11,488119.66 L 215138.05,488457.07 L 214757.73,488816.91 L 214390.41,489199.98 L 214038.83,489604.7 L 213705.76,490027.15 L 213388.44,490470.85 L 213090.8,490931.08 L 212809.7,491411 L 212549.86,491905.89 L 212307.73,492418.88 L 212080.96,492939.35 L 211880.56,493482.26 L 211697.1,494031.08 L 211542.38,494598.8 L 211404.19,495173.21 L 211296.71,495764.55 L 211206.55,496361 L 211141.19,496967.3 L 211103.4,497580.29 L 211091.98,498201.95 L 207257.33,495445.26 L 207272.69,494789.75 L 207314.42,494142.9 L 207379.77,493506.68 L 207469.93,492881.09 L 207592.37,492271.64 L 207730.56,491668.09 L 207899.46,491083.05 L 208083.71,490504.31 L 208295.13,489948.02 L 208521.9,489398.41 L 208775.05,488872.03 L 209049.06,488359.83 L 209341.19,487866.52 L 209653.79,487388.96 L 209982.13,486931.87 L 210329.38,486492.11 L 210691.98,486074.79 L 211070.32,485678.33 L 211465.6,485301.16 L 211875.83,484946.44 L 212299.85,484614.55 L 212744.73,484312.98 L 213196.7,484027.94 L 213668.36,483774.79 L 214143.95,483541.32 L 214638.04,483341.72 L 215143.55,483167.31 L 215658.91,483021.64 L 216191.98,482909.43 L 216735.28,482825.18 L 217286.47,482772.03 L 217853.39,482754.71 L 217853.39,482754.71 L 217853.4,482754.7 z "
   class="fil7"
   id="path90" />

    </g>

   </g>
      <g
         id="g92">
    <path
   style="fill:url(#linearGradient2227)"
   id="path94"
   d="M 193302,478185 C 199187.83,478185 204235.5,485114.13 204572.9,493657.4 C 204910.7,502201.49 200411.48,509130.6 194525.3,509130.6 C 188639.08,509130.6 183591.8,502201.47 183254,493657.4 C 182916.2,485114.09 187415.42,478185 193302,478185 z "
   class="fil10" />

    <g
   id="g96">
     <path
   style="fill:url(#linearGradient2229)"
   id="path98"
   d="M 193162,483370 C 197088.77,483370 200274.2,488367.24 200274.2,494529.4 C 200274.2,500691.6 197088.77,505688.8 193162,505688.8 C 189234.44,505688.8 186049.4,500691.56 186049.4,494529.4 C 186049.4,488367.2 189234.44,483370 193162,483370 z "
   class="fil11" />

     <path
   style="fill:#ff7a00;fill-rule:nonzero"
   d="M 202191,495908 L 198356.35,493151.31 L 198356.35,493151.31 L 198346.9,492592.26 L 198319.74,492040.29 L 198281.55,491502.88 L 198217.37,490970.21 L 198142.96,490453.67 L 198052.81,489947.37 L 197944.15,489454.07 L 197820.52,488972.57 L 197689.03,488509.58 L 197548.08,488068.24 L 197391.39,487642.65 L 197226.04,487239.89 L 197054.78,486858.79 L 196874.46,486504.07 L 196694.54,486180.05 L 196522.49,485894.22 L 196356.74,485648.55 L 196216.98,485452.89 L 196098.87,485311.15 L 196025.25,485228.08 L 196005.56,485208 L 196040.6,485237.14 L 196088.63,485277.29 L 196146.11,485318.24 L 196150.84,485318.63 L 196102.81,485294.62 L 195989.03,485246.59 L 195816.19,485183.59 L 195596.9,485121.39 L 195338.24,485067.85 L 195055.17,485034.78 L 194756.74,485028.48 L 191566.19,481711.94 L 191999.27,481734.77 L 192439.03,481787.53 L 192891.39,481876.5 L 193372.89,482010.36 L 193888.24,482196.97 L 194449.27,482449.73 L 195061.86,482776.11 L 195712.26,483176.5 L 196400.45,483664.69 L 197061.86,484197.76 L 197692.18,484763.9 L 198249.66,485324.93 L 198733.52,485863.9 L 199153.2,486384.38 L 199529.19,486890.28 L 199857.93,487383.98 L 200156.74,487872.96 L 200424.07,488359.18 L 200665.8,488847.76 L 200891.39,489341.46 L 201096.11,489844.22 L 201281.94,490353.27 L 201455.17,490874.14 L 201608.71,491400.12 L 201739.42,491932.01 L 201855.17,492475.72 L 201956.35,493028.47 L 202041,493591.46 L 202102.02,494158 L 202154.38,494737.13 L 202181.55,495319.02 L 202191,495908 L 202191,495908 L 202191,495908 z M 194756.75,507347.4 L 191566.2,504030.86 L 191566.2,504030.86 L 191888.25,504024.17 L 192209.51,503984.8 L 192533.92,503920.62 L 192855.18,503828.1 L 193179.19,503712.36 L 193496.52,503571.02 L 193808.33,503402.91 L 194115.02,503207.63 L 194420.93,502995.03 L 194718.56,502759.6 L 195009.11,502499.76 L 195290.22,502217.87 L 195561.48,501915.51 L 195824.86,501591.1 L 196077.22,501247 L 196317.38,500885.98 L 196547.3,500504.88 L 196765.41,500106.45 L 196970.92,499691.49 L 197170.92,499266.69 L 197348.88,498822.59 L 197514.63,498361.57 L 197673.29,497893.46 L 197810.29,497405.27 L 197932.34,496905.27 L 198046.12,496399.36 L 198136.28,495876.53 L 198215.81,495351.33 L 198279.98,494814.32 L 198325.25,494271.02 L 198346.91,493710.78 L 198356.36,493151.33 L 202191.01,495908.02 L 202181.56,496496.61 L 202148.88,497070.23 L 202103.61,497643.46 L 202042.58,498205.66 L 201963.05,498759.99 L 201861.87,499296.21 L 201751.24,499827.31 L 201618.96,500340.7 L 201470.93,500841.49 L 201315.42,501335.58 L 201138.65,501809.2 L 200946.52,502270.62 L 200749.67,502720.62 L 200533.13,503148.97 L 200304,503560.78 L 200063.06,503954.48 L 199808.72,504332.82 L 199545.34,504690.3 L 199270.93,505028.1 L 198984.71,505347.78 L 198688.65,505647 L 198383.92,505924.16 L 198068.17,506181.64 L 197743.37,506416.29 L 197404.4,506621.01 L 197055.58,506803.29 L 196698.1,506962.74 L 196333.92,507096.6 L 195954.4,507200.14 L 195567.78,507278.49 L 195166.21,507324.95 L 194756.76,507347.39 L 194756.76,507347.39 L 194756.75,507347.4 z M 184131.55,493151.3 L 187966.2,495907.99 L 187966.2,495907.99 L 187975.65,496467.05 L 188002.81,497019.01 L 188041,497556.42 L 188105.18,498089.09 L 188179.59,498605.63 L 188269.74,499111.93 L 188378.01,499605.23 L 188502.03,500086.73 L 188633.52,500549.72 L 188774.47,500991.06 L 188931.16,501416.65 L 189096.52,501819.41 L 189267.78,502200.51 L 189448.09,502555.23 L 189628.01,502879.25 L 189800.06,503165.08 L 189965.41,503410.75 L 190107.54,503604.45 L 190223.68,503748.15 L 190297.3,503831.22 L 190316.99,503851.3 L 190281.95,503822.16 L 190233.92,503782.01 L 190176.44,503741.06 L 190171.71,503740.67 L 190219.74,503764.68 L 190333.92,503812.71 L 190506.75,503875.71 L 190725.65,503937.91 L 190984.7,503991.45 L 191267.38,504024.53 L 191566.2,504030.83 L 194756.75,507347.37 L 194323.29,507324.53 L 193883.92,507271.77 L 193431.16,507182.8 L 192950.06,507048.94 L 192434.7,506862.33 L 191873.29,506609.57 L 191260.69,506283.19 L 190610.29,505882.8 L 189922.11,505394.61 L 189260.69,504861.54 L 188630.37,504295.4 L 188072.89,503734.37 L 187589.04,503195.4 L 187167.38,502676.89 L 186792.97,502169.02 L 186464.63,501675.32 L 186165.81,501186.34 L 185898.48,500700.12 L 185656.75,500211.54 L 185431.16,499717.84 L 185226.44,499215.08 L 185040.61,498706.03 L 184867.38,498185.16 L 184713.84,497659.18 L 184582.74,497127.29 L 184467.38,496583.59 L 184366.2,496030.83 L 184281.56,495467.84 L 184220.53,494901.3 L 184168.17,494322.17 L 184141.01,493740.28 L 184131.56,493151.3 L 184131.56,493151.3 L 184131.55,493151.3 z M 191566.2,481711.9 L 194756.75,485028.44 L 194756.75,485028.44 L 194434.31,485035.13 L 194113.44,485074.5 L 193788.64,485138.68 L 193467.77,485231.2 L 193143.76,485346.94 L 192826.04,485488.28 L 192514.23,485656.39 L 192207.54,485851.67 L 191901.63,486064.27 L 191603.99,486299.7 L 191313.44,486559.54 L 191032.34,486841.43 L 190761.08,487143.79 L 190497.69,487468.2 L 190244.94,487812.3 L 190005.17,488173.32 L 189775.25,488554.42 L 189557.14,488952.85 L 189351.63,489367.81 L 189151.63,489792.61 L 188973.68,490236.71 L 188807.93,490697.73 L 188649.27,491165.84 L 188512.26,491654.03 L 188389.82,492154.03 L 188276.43,492659.94 L 188186.28,493182.77 L 188106.75,493707.97 L 188042.58,494244.98 L 187997.3,494788.28 L 187975.65,495348.52 L 187966.2,495907.97 L 184131.55,493151.28 L 184141,492562.69 L 184173.67,491989.07 L 184218.95,491415.84 L 184279.97,490853.64 L 184359.5,490299.31 L 184460.68,489763.09 L 184570.92,489231.99 L 184703.59,488718.6 L 184851.63,488217.81 L 185007.14,487723.72 L 185183.91,487250.1 L 185376.04,486788.68 L 185572.89,486338.68 L 185789.42,485910.33 L 186018.55,485498.52 L 186259.5,485104.82 L 186513.44,484726.48 L 186777.22,484369 L 187051.63,484031.2 L 187337.85,483711.52 L 187633.91,483412.3 L 187938.63,483135.14 L 188254.38,482877.66 L 188579.18,482643.01 L 188918.16,482438.29 L 189266.98,482256.01 L 189624.85,482096.56 L 189989.03,481962.7 L 190368.16,481859.16 L 190755.17,481780.81 L 191156.35,481734.35 L 191566.19,481711.91 L 191566.19,481711.91 L 191566.2,481711.9 z "
   class="fil7"
   id="path100" />

    </g>

   </g>
      <g
         id="g102">
    <path
   style="fill:url(#linearGradient2231)"
   id="path104"
   d="M 172833,478055 C 177226.31,478055 180993.24,484196.34 181245.6,491769.2 C 181497.57,499342.03 178139.3,505483.8 173746.39,505483.8 C 169352.69,505483.8 165585.76,499342.07 165333.4,491769.2 C 165081.43,484196.37 168439.7,478055 172833.01,478055 L 172833,478055 z "
   class="fil12" />

    <g
   id="g106">
     <path
   style="fill:url(#linearGradient2233)"
   id="path108"
   d="M 173028,482119 C 175961.46,482119 178340.6,486742.62 178340.6,492444.2 C 178340.6,498145.38 175961.47,502769 173028,502769 C 170094.54,502769 167715.4,498145.38 167715.4,492444.2 C 167715.4,486742.63 170094.53,482119 173028,482119 z "
   class="fil13" />

     <path
   style="fill:#ff7a00;fill-rule:nonzero"
   d="M 180258,493822 L 176423.35,491065.31 L 176423.35,491065.31 L 176418.23,490546.81 L 176399.33,490035.39 L 176365.48,489533.42 L 176320.99,489037.36 L 176261.54,488552.71 L 176196.97,488083.81 L 176111.54,487621.21 L 176023.74,487173.58 L 175922.56,486738.93 L 175810.75,486316.88 L 175693.43,485916.1 L 175566.26,485528.69 L 175425.32,485159.4 L 175291.07,484815.31 L 175143.82,484490.51 L 175000.52,484196.41 L 174859.57,483935.78 L 174723.35,483706.65 L 174604.06,483524.37 L 174511.93,483393.66 L 174452.48,483322.79 L 174460.75,483331.06 L 174537.13,483403.89 L 174687.13,483535 L 174882.41,483686.96 L 175043.04,483792.08 L 175145.79,483850.35 L 175159.97,483854.68 L 175098.94,483835.39 L 174976.9,483804.68 L 174816.27,483782.63 L 174623.35,483776.73 L 171432.8,480460.19 L 171786.35,480481.05 L 172165.09,480538.53 L 172575.32,480639.32 L 173037.13,480801.92 L 173565.48,481036.96 L 174172.17,481373.18 L 174826.5,481803.49 L 175504.46,482324.75 L 176125.32,482870.03 L 176659.18,483398.77 L 177112.33,483903.89 L 177484.38,484370.82 L 177808.79,484815.7 L 178091.07,485246.01 L 178339.89,485666.49 L 178568.23,486089.32 L 178776.89,486512.55 L 178963.51,486937.35 L 179145,487373.57 L 179300.12,487813.73 L 179449.34,488264.12 L 179587.92,488727.9 L 179710.75,489196.41 L 179822.17,489676.72 L 179924.93,490166.88 L 180006.42,490663.34 L 180085.16,491173.97 L 180144.61,491688.53 L 180193.04,492209.79 L 180226.89,492740.89 L 180248.94,493278.3 L 180258,493822 L 180258,493822 L 180258,493822 z M 174623.35,504426.7 L 171432.8,501110.16 L 171432.8,501110.16 L 171651.3,501102.68 L 171877.29,501070.79 L 172101.3,501010.95 L 172339.1,500933.39 L 172576.11,500827.09 L 172808,500697.56 L 173034.77,500544.02 L 173266.66,500370.4 L 173493.04,500173.94 L 173712.72,499957.01 L 173927.68,499717.25 L 174137.92,499455.04 L 174339.1,499175.91 L 174534.38,498876.3 L 174719.42,498560.16 L 174898.55,498224.73 L 175069.02,497872.76 L 175237.92,497510.55 L 175390.28,497127.48 L 175532.8,496728.66 L 175667.45,496314.49 L 175796.98,495894.8 L 175908.79,495455.83 L 176018.63,495009.37 L 176108.39,494547.17 L 176193.83,494080.24 L 176261.94,493594.41 L 176322.96,493107.4 L 176363.9,492605.43 L 176399.73,492101.89 L 176414.69,491583.78 L 176423.35,491065.28 L 180258,493821.97 L 180252.49,494365.67 L 180226.51,494896.38 L 180194.62,495425.9 L 180142.65,495940.47 L 180084.78,496452.68 L 180009.58,496947.16 L 179928.08,497439.29 L 179827.3,497914.88 L 179724.54,498382.6 L 179601.7,498834.17 L 179475.33,499279.06 L 179333.59,499702.68 L 179180.05,500114.09 L 179016.67,500510.55 L 178851.7,500897.95 L 178670.21,501263.31 L 178480.05,501611.34 L 178280.05,501944.8 L 178073.75,502257.8 L 177858.4,502554.25 L 177637.14,502829.84 L 177407.22,503086.93 L 177169.42,503325.91 L 176924.93,503543.62 L 176674.15,503739.29 L 176407.22,503910.95 L 176135.17,504059.37 L 175858.01,504183.78 L 175572.97,504288.11 L 175264.7,504359.76 L 174951.31,504407.4 L 174623.36,504426.69 L 174623.36,504426.69 L 174623.35,504426.7 z M 165798.15,491065.3 L 169632.8,493821.99 L 169632.8,493821.99 L 169637.92,494340.49 L 169656.82,494851.91 L 169690.67,495353.88 L 169735.16,495849.55 L 169794.61,496334.2 L 169859.18,496803.49 L 169944.61,497266.08 L 170032.41,497713.72 L 170133.59,498147.97 L 170245.4,498570.02 L 170362.72,498970.81 L 170489.89,499358.21 L 170630.83,499727.9 L 170765.08,500071.6 L 170912.33,500396.4 L 171055.63,500690.49 L 171196.58,500951.12 L 171332.8,501180.26 L 171452.09,501362.54 L 171544.22,501493.25 L 171603.67,501564.12 L 171595.4,501555.85 L 171519.02,501483.01 L 171369.02,501351.91 L 171173.74,501199.94 L 171013.11,501094.82 L 170910.36,501036.56 L 170896.18,501032.23 L 170957.21,501051.52 L 171079.25,501082.23 L 171239.88,501104.27 L 171432.8,501110.18 L 174623.35,504426.72 L 174269.8,504405.85 L 173891.06,504348.37 L 173480.83,504247.58 L 173019.02,504084.99 L 172490.67,503849.95 L 171883.98,503513.73 L 171229.65,503083.41 L 170551.69,502562.15 L 169930.83,502016.88 L 169396.97,501488.14 L 168943.82,500983.02 L 168571.77,500516.09 L 168247.36,500071.21 L 167965.08,499640.89 L 167716.26,499220.42 L 167487.92,498797.59 L 167279.26,498374.36 L 167092.64,497949.55 L 166911.15,497513.73 L 166756.03,497073.18 L 166606.81,496622.78 L 166468.23,496159 L 166345.4,495690.5 L 166233.98,495210.58 L 166131.22,494720.42 L 166049.73,494223.96 L 165970.99,493712.94 L 165911.54,493198.37 L 165863.11,492677.51 L 165829.26,492146.4 L 165807.21,491609 L 165798.15,491065.3 L 165798.15,491065.3 L 165798.15,491065.3 z M 171432.8,480460.2 L 174623.35,483776.74 L 174623.35,483776.74 L 174404.85,483784.22 L 174178.86,483816.11 L 173954.85,483875.95 L 173717.05,483953.51 L 173480.04,484059.81 L 173248.15,484189.34 L 173021.38,484342.88 L 172789.49,484516.5 L 172563.11,484712.96 L 172343.43,484929.89 L 172128.47,485169.65 L 171918.23,485431.86 L 171717.05,485710.99 L 171521.77,486010.6 L 171336.73,486326.74 L 171157.6,486662.17 L 170987.13,487014.14 L 170818.23,487376.35 L 170665.87,487759.81 L 170523.35,488158.24 L 170388.7,488572.41 L 170259.17,488992.1 L 170147.36,489431.07 L 170037.52,489877.92 L 169947.76,490340.13 L 169862.32,490807.06 L 169794.21,491292.49 L 169733.19,491779.5 L 169692.25,492281.86 L 169656.42,492785.4 L 169641.46,493303.51 L 169632.8,493822.02 L 165798.15,491065.33 L 165803.66,490521.62 L 165829.64,489990.92 L 165861.53,489461.39 L 165913.5,488946.43 L 165971.37,488434.22 L 166046.57,487940.13 L 166128.07,487448 L 166228.85,486972.41 L 166331.61,486504.3 L 166454.45,486052.73 L 166580.82,485607.84 L 166722.56,485184.22 L 166876.1,484773.2 L 167039.48,484376.35 L 167204.45,483988.95 L 167385.94,483623.59 L 167576.1,483275.56 L 167776.1,482942.1 L 167982.4,482629.1 L 168197.75,482332.65 L 168419.01,482057.06 L 168648.93,481799.97 L 168886.73,481560.99 L 169131.22,481343.28 L 169382,481147.61 L 169648.93,480975.95 L 169920.98,480827.53 L 170198.14,480703.12 L 170483.18,480598.79 L 170791.45,480527.13 L 171104.84,480479.5 L 171432.79,480460.21 L 171432.79,480460.21 L 171432.8,480460.2 z "
   class="fil7"
   id="path110" />

    </g>

   </g>
      <path
         style="fill:#ff7a00"
         id="path112"
         d="M 312369,487823 C 295525.3,496811.98 264136.7,495480.48 236223.3,496062.37 C 261293,496711.19 287508.7,497871.03 312577.6,491995.05 C 313202.4,490326.55 313132.32,489491.51 312368.94,487823 L 312369,487823 z "
         class="fil14" />
      <path
         style="fill:#ff7a00"
         id="path114"
         d="M 283122,517780 C 293730.3,501471.7 296568.5,485380 285553.89,469574.9 C 293931.84,485376.5 292040.9,501475.7 283122,517780 z "
         class="fil14" />
      <path
         style="fill:#ff7a00"
         id="path116"
         d="M 269313,453999 C 251613.8,457823.02 230902.4,456154.51 208202.4,455529.31 C 232250,455664.35 254553.6,454397.03 269139.8,450353.33 L 269313.03,453999 L 269313,453999 z "
         class="fil14" />
      <path
         style="fill:#ff7a00"
         id="path118"
         d="M 248800,437730 C 238180.7,440024.49 225781.1,438841.81 212161,438467.01 C 226589.7,438547.72 239346.4,437896.54 248098.4,435470.16 L 248799.98,437730 L 248800,437730 z "
         class="fil14" />
      <g
         id="g120">
    <path
   style="fill:url(#linearGradient2235)"
   id="path122"
   d="M 240654,490473 C 241544.55,490473 242267.39,491195.84 242267.39,492086.78 C 242267.39,492977.33 241544.56,493700.17 240654,493700.17 C 239763.05,493700.17 239040.22,492977.34 239040.22,492086.78 C 239040.22,491195.84 239763.05,490473 240654,490473 z "
   class="fil15" />

    <path
   style="fill:#ff7a00"
   id="path124"
   d="M 240468,491283 C 241014.06,491283 241457.37,491726.31 241457.37,492272.76 C 241457.37,492818.83 241014.06,493262.13 240468,493262.13 C 239921.54,493262.13 239478.24,492818.83 239478.24,492272.76 C 239478.24,491726.31 239921.54,491283 240468,491283 z "
   class="fil14" />

   </g>
      <g
         id="g126">
    <path
   style="fill:url(#linearGradient2237)"
   id="path128"
   d="M 249571,490473 C 250461.55,490473 251184.39,491195.84 251184.39,492086.78 C 251184.39,492977.33 250461.56,493700.17 249571,493700.17 C 248680.05,493700.17 247957.22,492977.34 247957.22,492086.78 C 247957.22,491195.84 248680.05,490473 249571,490473 z "
   class="fil15" />

    <path
   style="fill:#ff7a00"
   id="path130"
   d="M 249385,491283 C 249931.06,491283 250374.37,491726.31 250374.37,492272.76 C 250374.37,492818.83 249931.06,493262.13 249385,493262.13 C 248838.54,493262.13 248395.24,492818.83 248395.24,492272.76 C 248395.24,491726.31 248838.54,491283 249385,491283 z "
   class="fil14" />

   </g>
      <g
         id="g132">
    <path
   style="fill:url(#linearGradient2239)"
   id="path134"
   d="M 258488,490264 C 259378.55,490264 260101.39,490986.84 260101.39,491877.78 C 260101.39,492768.33 259378.56,493491.17 258488,493491.17 C 257597.05,493491.17 256874.22,492768.34 256874.22,491877.78 C 256874.22,490986.84 257597.05,490264 258488,490264 z "
   class="fil15" />

    <path
   style="fill:#ff7a00"
   id="path136"
   d="M 258302,491074 C 258848.06,491074 259291.37,491517.31 259291.37,492063.76 C 259291.37,492609.83 258848.06,493053.13 258302,493053.13 C 257755.54,493053.13 257312.24,492609.83 257312.24,492063.76 C 257312.24,491517.31 257755.54,491074 258302,491074 z "
   class="fil14" />

   </g>
      <g
         id="g138">
    <path
   style="fill:url(#linearGradient2241)"
   id="path140"
   d="M 267196,489599 C 268223.56,489599 269057.81,490433.25 269057.81,491461.2 C 269057.81,492488.76 268223.56,493323.01 267196,493323.01 C 266168.05,493323.01 265333.8,492488.76 265333.8,491461.2 C 265333.8,490433.25 266168.05,489599 267196,489599 z "
   class="fil16" />

    <path
   style="fill:#ff7a00"
   id="path142"
   d="M 266981,490534 C 267611.32,490534 268122.73,491045.42 268122.73,491676.13 C 268122.73,492306.05 267611.31,492817.86 266981,492817.86 C 266350.69,492817.86 265838.87,492306.05 265838.87,491676.13 C 265838.87,491045.42 266350.68,490534 266981,490534 z "
   class="fil14" />

   </g>
      <g
         id="g144">
    <path
   style="fill:url(#linearGradient2243)"
   id="path146"
   d="M 276321,489058 C 277359.19,489058 278202.1,489900.52 278202.1,490939.5 C 278202.1,491977.69 277359.19,492820.6 276321,492820.6 C 275282.02,492820.6 274439.5,491977.69 274439.5,490939.5 C 274439.5,489900.52 275282.02,489058 276321,489058 z "
   class="fil17" />

    <path
   style="fill:#ff7a00"
   id="path148"
   d="M 276104,490003 C 276740.61,490003 277257.54,490519.93 277257.54,491156.94 C 277257.54,491793.95 276740.61,492310.48 276104,492310.48 C 275466.6,492310.48 274949.67,491793.95 274949.67,491156.94 C 274949.67,490519.93 275466.6,490003 276104,490003 z "
   class="fil14" />

   </g>
      <g
         id="g150">
    <path
   style="fill:url(#linearGradient2245)"
   id="path152"
   d="M 285238,487973 C 286414.38,487973 287369.1,488928.12 287369.1,490104.89 C 287369.1,491281.27 286414.38,492235.99 285238,492235.99 C 284061.23,492235.99 283106.11,491281.27 283106.11,490104.89 C 283106.11,488928.12 284061.23,487973 285238,487973 z "
   class="fil18" />

    <path
   style="fill:#ff7a00"
   id="path154"
   d="M 284992,489044 C 285713.26,489044 286299.09,489629.43 286299.09,490351.48 C 286299.09,491072.74 285713.26,491658.17 284992,491658.17 C 284270.35,491658.17 283684.91,491072.74 283684.91,490351.48 C 283684.91,489629.43 284270.34,489044 284992,489044 z "
   class="fil14" />

   </g>
      <g
         id="g156">
    <path
   style="fill:url(#linearGradient2247)"
   id="path158"
   d="M 296697,486826 C 297873.38,486826 298828.1,487781.12 298828.1,488957.89 C 298828.1,490134.27 297873.38,491088.99 296697,491088.99 C 295520.23,491088.99 294565.11,490134.27 294565.11,488957.89 C 294565.11,487781.12 295520.23,486826 296697,486826 z "
   class="fil18" />

    <path
   style="fill:#ff7a00"
   id="path160"
   d="M 296451,487896 C 297172.26,487896 297758.09,488481.43 297758.09,489203.48 C 297758.09,489924.74 297172.26,490510.17 296451,490510.17 C 295729.35,490510.17 295143.91,489924.74 295143.91,489203.48 C 295143.91,488481.43 295729.34,487896 296451,487896 z "
   class="fil14" />

   </g>
      <g
         id="g162">
    <path
   style="fill:url(#linearGradient2249)"
   id="path164"
   d="M 303550,485658 C 304392.91,485658 305077.17,486342.25 305077.17,487185.56 C 305077.17,488028.47 304392.92,488712.73 303550,488712.73 C 302706.69,488712.73 302022.44,488028.48 302022.44,487185.56 C 302022.44,486342.25 302706.69,485658 303550,485658 z "
   class="fil19" />

    <path
   style="fill:#ff7a00"
   id="path166"
   d="M 303374,486425 C 303890.93,486425 304310.61,486844.69 304310.61,487362.01 C 304310.61,487878.94 303890.93,488298.23 303374,488298.23 C 302857.07,488298.23 302437.39,487878.94 302437.39,487362.01 C 302437.39,486844.69 302857.07,486425 303374,486425 z "
   class="fil14" />

   </g>
      <g
         id="g168">
    <path
   style="fill:url(#linearGradient2251)"
   id="path170"
   d="M 309404,484426 C 310005.58,484426 310493.76,484914.19 310493.76,485516.16 C 310493.76,486117.73 310005.57,486605.92 309404,486605.92 C 308802.03,486605.92 308313.84,486117.73 308313.84,485516.16 C 308313.84,484914.19 308802.03,484426 309404,484426 z "
   class="fil20" />

    <path
   style="fill:#ff7a00"
   id="path172"
   d="M 309279,484973 C 309647.5,484973 309947.11,485272.61 309947.11,485641.5 C 309947.11,486010.4 309647.5,486310.01 309279,486310.01 C 308909.71,486310.01 308610.1,486010.4 308610.1,485641.5 C 308610.1,485272.61 308909.71,484973 309279,484973 z "
   class="fil14" />

   </g>
      <g
         id="g174">
    <g
   id="g176">
     <path
   style="fill:url(#linearGradient2253)"
   id="path178"
   d="M 212529,443578 C 213419.55,443578 214142.39,444300.84 214142.39,445191.78 C 214142.39,446082.33 213419.56,446805.17 212529,446805.17 C 211638.05,446805.17 210915.22,446082.34 210915.22,445191.78 C 210915.22,444300.84 211638.05,443578 212529,443578 z "
   class="fil15" />

     <path
   style="fill:#ff7a00"
   id="path180"
   d="M 212343,444388 C 212889.06,444388 213332.37,444831.31 213332.37,445377.76 C 213332.37,445923.83 212889.06,446367.13 212343,446367.13 C 211796.54,446367.13 211353.24,445923.83 211353.24,445377.76 C 211353.24,444831.31 211796.54,444388 212343,444388 z "
   class="fil14" />

    </g>

    <g
   id="g182">
     <path
   style="fill:url(#linearGradient2255)"
   id="path184"
   d="M 221446,443578 C 222336.55,443578 223059.39,444300.84 223059.39,445191.78 C 223059.39,446082.33 222336.56,446805.17 221446,446805.17 C 220555.05,446805.17 219832.22,446082.34 219832.22,445191.78 C 219832.22,444300.84 220555.05,443578 221446,443578 z "
   class="fil15" />

     <path
   style="fill:#ff7a00"
   id="path186"
   d="M 221259,444388 C 221805.06,444388 222248.37,444831.31 222248.37,445377.76 C 222248.37,445923.83 221805.06,446367.13 221259,446367.13 C 220712.54,446367.13 220269.24,445923.83 220269.24,445377.76 C 220269.24,444831.31 220712.54,444388 221259,444388 z "
   class="fil14" />

    </g>

    <g
   id="g188">
     <path
   style="fill:url(#linearGradient2257)"
   id="path190"
   d="M 230363,443369 C 231253.55,443369 231976.39,444091.84 231976.39,444982.78 C 231976.39,445873.33 231253.56,446596.17 230363,446596.17 C 229472.05,446596.17 228749.22,445873.34 228749.22,444982.78 C 228749.22,444091.84 229472.05,443369 230363,443369 z "
   class="fil15" />

     <path
   style="fill:#ff7a00"
   id="path192"
   d="M 230176,444179 C 230722.06,444179 231165.37,444622.31 231165.37,445168.76 C 231165.37,445714.83 230722.06,446158.13 230176,446158.13 C 229629.54,446158.13 229186.24,445714.83 229186.24,445168.76 C 229186.24,444622.31 229629.54,444179 230176,444179 z "
   class="fil14" />

    </g>

    <g
   id="g194">
     <path
   style="fill:url(#linearGradient2259)"
   id="path196"
   d="M 239071,442704 C 240098.56,442704 240932.81,443538.25 240932.81,444566.2 C 240932.81,445593.76 240098.56,446428.01 239071,446428.01 C 238043.05,446428.01 237208.8,445593.76 237208.8,444566.2 C 237208.8,443538.25 238043.05,442704 239071,442704 z "
   class="fil16" />

     <path
   style="fill:#ff7a00"
   id="path198"
   d="M 238856,443639 C 239486.32,443639 239997.73,444150.42 239997.73,444781.13 C 239997.73,445411.05 239486.31,445922.86 238856,445922.86 C 238225.69,445922.86 237713.87,445411.05 237713.87,444781.13 C 237713.87,444150.42 238225.68,443639 238856,443639 z "
   class="fil14" />

    </g>

    <g
   id="g200">
     <path
   style="fill:url(#linearGradient2261)"
   id="path202"
   d="M 248196,442163 C 249234.19,442163 250077.1,443005.52 250077.1,444044.5 C 250077.1,445082.69 249234.19,445925.6 248196,445925.6 C 247157.02,445925.6 246314.5,445082.69 246314.5,444044.5 C 246314.5,443005.52 247157.02,442163 248196,442163 z "
   class="fil17" />

     <path
   style="fill:#ff7a00"
   id="path204"
   d="M 247979,443107 C 248615.61,443107 249132.54,443623.93 249132.54,444260.94 C 249132.54,444897.95 248615.61,445414.48 247979,445414.48 C 247341.6,445414.48 246824.67,444897.95 246824.67,444260.94 C 246824.67,443623.93 247341.6,443107 247979,443107 z "
   class="fil14" />

    </g>

    <g
   id="g206">
     <path
   style="fill:url(#linearGradient2263)"
   id="path208"
   d="M 257113,441078 C 258289.38,441078 259244.1,442033.12 259244.1,443209.89 C 259244.1,444386.27 258289.38,445340.99 257113,445340.99 C 255936.23,445340.99 254981.11,444386.27 254981.11,443209.89 C 254981.11,442033.12 255936.23,441078 257113,441078 z "
   class="fil18" />

     <path
   style="fill:#ff7a00"
   id="path210"
   d="M 256867,442148 C 257588.26,442148 258174.09,442733.43 258174.09,443455.48 C 258174.09,444176.74 257588.26,444762.17 256867,444762.17 C 256145.35,444762.17 255559.91,444176.74 255559.91,443455.48 C 255559.91,442733.43 256145.34,442148 256867,442148 z "
   class="fil14" />

    </g>

   </g>
      <path
         style="fill:#3f3f3f;fill-rule:nonzero"
         id="path212"
         d="M 361324,540557 L 354955.5,540557 C 364794.48,524363.3 369713.8,508169.2 369713.8,491940.9 C 369713.8,485604.68 369006.32,479320.4 367591.36,473070.8 C 366479.55,468029.46 364912.23,463160.96 362907.5,458516.9 C 361627.19,455478.32 358982.3,450420.05 354955.53,443341.7 L 361324.03,443341.7 C 367506.71,451801.15 372089.43,460295.2 375054.33,468823.6 C 377581.5,476178.32 378845.27,483861 378845.27,491889 C 378845.27,501004.75 377143.7,509792.1 373740.55,518303.6 C 370337.4,526797.69 366192.91,534221.3 361324.05,540557.1 L 361324,540557 z "
         class="fil21" />
      <path
         style="fill:#7b7b7b;fill-rule:nonzero"
         id="path214"
         d="M 343005,526485 L 338480.59,526485 C 345470.75,514979.5 348965.59,503474.4 348965.59,491944.4 C 348965.59,487442.83 348463.23,482978.26 347457.72,478537.7 C 346667.56,474956.2 345554.57,471497.15 344130.16,468197.9 C 343220.71,466038.84 341341.18,462445.14 338480.55,457416 L 343004.96,457416 C 347397.87,463426.24 350653.39,469461.3 352760.08,475520.3 C 354555.75,480745.5 355452.99,486203.8 355452.99,491907.7 C 355452.99,498383.68 354244.33,504627 351826.22,510674.2 C 349408.5,516708.85 346464.41,521983.3 343004.96,526484.8 L 343005,526485 z "
         class="fil22" />
      <path
         style="fill:#b7b7b7;fill-rule:nonzero"
         id="path216"
         d="M 326915,515348 L 323849.65,515348 C 328585.48,507553.12 330953.19,499758.2 330953.19,491946.8 C 330953.19,488897.19 330612.64,485872 329931.54,482864.12 C 329396.5,480437.35 328642.17,478094.04 327677.21,475858.61 C 327061.07,474396.01 325787.84,471961.37 323849.65,468553.89 L 326915,468553.89 C 329890.98,472625.94 332096.5,476714.52 333523.66,480819.59 C 334740.2,484359.75 335348.46,488057.78 335348.46,491921.99 C 335348.46,496309.39 334529.56,500539.31 332891.37,504636.19 C 331253.18,508724.77 329258.69,512298 326914.99,515347.99 L 326915,515348 z "
         class="fil23" />
      <g
         id="g218">
    <g
   id="g220">
     <path
   style="fill:url(#linearGradient2265)"
   id="path222"
   d="M 178870,472393 L 191309,467963.08 C 204275.9,468978.83 218453.5,469277.65 234270.4,469004.02 C 235717.25,473062.68 236003.47,477075.67 235128.27,481046.12 C 231145.99,483401.63 226819.61,484987.85 221992.87,485450.06 C 206432.67,484216.99 192244.47,482200.06 180505.47,478784.31 C 179377.12,476631.95 178701.14,474845.33 178870.04,472392.97 L 178870,472393 z "
   class="fil24" />

     <path
   style="fill:#ff7a00;fill-rule:nonzero"
   d="M 190248,466163 L 192868.08,469711.82 L 180429.08,474141.74 L 177310.97,470643.31 L 189749.97,466213.39 L 190248,466163 L 190248,466163 z M 189749.97,466213.39 L 189955.88,466140.17 L 190248,466163 L 189749.97,466213.39 L 189749.97,466213.39 z M 236184.97,469573.23 L 232355.84,468433.86 L 235484.19,470812.6 L 233998.76,470830.32 L 232530.26,470850.79 L 231068.45,470872.05 L 229618.45,470885.83 L 228167.66,470893.31 L 226736.56,470900.01 L 225311.76,470907.49 L 223890.89,470900.79 L 222483.8,470900.79 L 221088.92,470893.31 L 219692.07,470879.93 L 218314.51,470865.36 L 216942.46,470850.79 L 215571.99,470826.38 L 214220.42,470800.4 L 212873.57,470774.41 L 211531.44,470735.44 L 210201.52,470701.58 L 208875.93,470654.73 L 207562.54,470613.78 L 206257.03,470568.51 L 204955.46,470509.85 L 203665.7,470457.09 L 202376.72,470394.1 L 201102.31,470333.47 L 199831.84,470259.06 L 198572.78,470189.77 L 197314.12,470111.03 L 196070.03,470034.26 L 194829.09,469942.92 L 193599.96,469858.27 L 192370.04,469762.21 L 190247.99,466163 L 191456.65,466253.55 L 192680.27,466346.07 L 193906.25,466424.81 L 195144.05,466509.46 L 196382.24,466583.47 L 197635,466659.85 L 198891.3,466722.45 L 200159.41,466790.17 L 201427.91,466848.43 L 202711.37,466908.28 L 203998.77,466955.13 L 205297.98,467007.49 L 206605.07,467055.52 L 207916.49,467090.56 L 209240.11,467131.5 L 210568.06,467158.67 L 211908.61,467191.74 L 213260.18,467217.72 L 214610.18,467237.41 L 215975.93,467259.06 L 217353.49,467273.63 L 218729.87,467282.29 L 220124.75,467289.77 L 221525.54,467297.65 L 222931.45,467291.74 L 224350.74,467292.13 L 225781.84,467285.44 L 227211.37,467272.45 L 228661.37,467258.67 L 230117.67,467245.28 L 231586.17,467224.81 L 233056.64,467194.5 L 236184.99,469573.24 L 236184.97,469573.23 z M 233056.62,467194.49 L 235323.16,467155.12 L 236184.97,469573.23 L 233056.62,467194.49 L 233056.62,467194.49 z M 236816.46,482728.79 L 233440.08,479362.65 L 233136.54,479785.88 L 233206.22,479424.07 L 233279.06,479065.02 L 233342.05,478709.5 L 233398.35,478353.2 L 233447.95,477996.91 L 233490.87,477640.21 L 233529.84,477279.58 L 233558.98,476922.89 L 233581.42,476565.41 L 233596.77,476207.54 L 233605.43,475849.66 L 233607.4,475491.79 L 233609.76,475139.43 L 233595.2,474784.7 L 233584.17,474431.55 L 233558.58,474072.5 L 233533.78,473718.95 L 233491.65,473363.44 L 233453.47,473009.11 L 233408.19,472655.17 L 233353.07,472304.39 L 233294.41,471950.06 L 233228.66,471594.94 L 233153.07,471243.36 L 233073.54,470888.24 L 232992.05,470542.18 L 232899.13,470186.28 L 232803.86,469839.43 L 232697.17,469482.73 L 232588.5,469136.28 L 232475.51,468785.09 L 232355.83,468433.91 L 236184.96,469573.28 L 236329.84,469982.73 L 236468.03,470392.18 L 236596.37,470804.78 L 236713.3,471207.14 L 236828.26,471619.35 L 236931.41,472021.71 L 237032.6,472433.13 L 237122.36,472834.7 L 237202.67,473239.82 L 237279.45,473640.61 L 237349.13,474041.39 L 237408.97,474445.72 L 237464.49,474846.12 L 237513.7,475246.12 L 237546.38,475643.36 L 237581.41,476042.57 L 237603.07,476436.28 L 237625.12,476835.09 L 237630.23,477231.55 L 237638.11,477629.58 L 237632.99,478022.1 L 237620.39,478413.83 L 237601.1,478805.57 L 237574.72,479196.91 L 237541.65,479588.24 L 237505.04,479975.65 L 237458.97,480366.2 L 237405.43,480756.35 L 237345.19,481146.51 L 237278.26,481536.67 L 237207.79,481922.5 L 237120,482305.57 L 236816.45,482728.79 L 236816.46,482728.79 z M 237120,482305.57 L 237058.19,482585.88 L 236816.46,482728.79 L 237120,482305.57 L 237120,482305.57 z M 223053.9,487249.27 L 220931.85,483650.06 L 220675.16,483647.3 L 221109.81,483605.57 L 221541.7,483557.54 L 221973.59,483498.87 L 222392.09,483431.95 L 222815.32,483364.62 L 223238.94,483287.06 L 223656.26,483207.54 L 224074.37,483117.77 L 224486.58,483025.65 L 224899.18,482923.68 L 225309.02,482816.59 L 225720.44,482712.65 L 226125.16,482593.36 L 226527.52,482468.17 L 226923.98,482341.39 L 227328.31,482210.68 L 227723.19,482068.95 L 228115.32,481921.71 L 228512.56,481774.86 L 228899.96,481616.59 L 229292.09,481459.5 L 229674.77,481290.61 L 230062.56,481122.89 L 230440.91,480944.15 L 230823.58,480766.2 L 231207.84,480579.58 L 231579.1,480385.88 L 231955.87,480193.36 L 232326.34,479986.27 L 232698.39,479784.3 L 233068.86,479577.61 L 233440.12,479362.65 L 236816.5,482728.79 L 236438.94,482950.84 L 236056.66,483172.49 L 235672.01,483388.63 L 235281.07,483591 L 234892.48,483798.48 L 234494.45,483994.54 L 234103.9,484188.24 L 233708.62,484381.15 L 233303.51,484562.25 L 232903.9,484744.93 L 232494.45,484916.19 L 232089.73,485088.24 L 231675.55,485248.87 L 231266.5,485409.89 L 230847.6,485560.29 L 230425.95,485704.38 L 230009.81,485849.26 L 229580.28,485986.27 L 229151.14,486113.83 L 228719.65,486235.48 L 228290.12,486361.47 L 227853.51,486471.7 L 227414.14,486576.03 L 226968.86,486677.61 L 226523.98,486769.74 L 226073.58,486859.5 L 225623.19,486939.42 L 225167.68,487016.98 L 224701.14,487081.55 L 224242.48,487142.57 L 223778.31,487200.84 L 223310.59,487252.02 L 223053.9,487249.26 L 223053.9,487249.27 z M 223310.6,487252.02 L 223210.2,487261.47 L 223053.9,487249.27 L 223310.6,487252.02 L 223310.6,487252.02 z M 178726,478524.85 L 182285.05,479042.96 L 179879.94,477067.37 L 180959.47,477372.88 L 182060.64,477676.03 L 183172.85,477975.25 L 184294.5,478256.35 L 185437.01,478536.27 L 186592.52,478808.32 L 187761.82,479072.88 L 188953.95,479332.33 L 190148.44,479582.33 L 191355.92,479824.85 L 192586.23,480062.65 L 193825.21,480297.69 L 195072.06,480515.4 L 196335.05,480736.66 L 197612.61,480947.29 L 198898.44,481155.95 L 200191.35,481347.29 L 201502.36,481539.03 L 202824.41,481724.46 L 204161.02,481913.83 L 205503.93,482087.45 L 206857.47,482254.77 L 208220.07,482416.58 L 209593.3,482572.88 L 210975.98,482723.67 L 212375.19,482875.64 L 213776.37,483015.4 L 215187,483150.44 L 216612.98,483286.66 L 218044.08,483407.92 L 219487.39,483534.3 L 220931.88,483650.05 L 223053.93,487249.26 L 221588.97,487128.79 L 220139.36,487010.28 L 218694.08,486876.42 L 217261.8,486748.08 L 215830.7,486608.31 L 214409.05,486463.04 L 213003.54,486318.94 L 211600.39,486163.43 L 210206.69,486002.41 L 208822.83,485835.87 L 207448.82,485663.04 L 206085.42,485484.69 L 204736.22,485310.28 L 203393.7,485120.13 L 202062.2,484923.67 L 200733.85,484715.01 L 199421.25,484509.5 L 198123.22,484294.14 L 196833.45,484075.24 L 195551.17,483840.21 L 194285.42,483608.32 L 193034.63,483365.8 L 191786.2,483113.04 L 190549.98,482853.59 L 189337.38,482589.42 L 188127.14,482315.4 L 186929.91,482033.91 L 185746.45,481744.54 L 184568.89,481441.39 L 183409.44,481139.81 L 182266.52,480827.21 L 181131.1,480500.44 L 178725.98,478524.85 L 178726,478524.85 z M 181131.11,480500.44 L 179515.36,480030.36 L 178726,478524.85 L 181131.11,480500.44 L 181131.11,480500.44 z M 177311.04,470643.35 L 180429.14,474141.78 L 180881.11,473526.03 L 180869.7,473737.06 L 180858.67,473934.7 L 180859.85,474134.3 L 180855.92,474329.18 L 180866.15,474522.49 L 180874.03,474707.14 L 180886.63,474888.63 L 180903.55,475068.55 L 180924.81,475245.33 L 180946.47,475409.89 L 180976.39,475582.73 L 181002.77,475747.29 L 181040.96,475916.59 L 181079.15,476074.46 L 181117.73,476235.09 L 181160.25,476394.54 L 181207.1,476553.2 L 181257.1,476710.68 L 181311.04,476867.77 L 181365.37,477028.4 L 181418.91,477179.18 L 181483.08,477336.27 L 181548.04,477496.9 L 181616.15,477658.32 L 181687.41,477820.13 L 181765.76,477992.96 L 181843.32,478156.35 L 181927.96,478331.15 L 182008.28,478501.23 L 182098.44,478678.79 L 182192.14,478857.92 L 182285.05,479042.96 L 178725.99,478524.85 L 178610.24,478308.32 L 178500.01,478089.81 L 178392.53,477873.67 L 178280.72,477652.41 L 178179.54,477439.03 L 178076.78,477217.37 L 177981.11,477005.96 L 177884.65,476785.88 L 177791.35,476566.19 L 177701.19,476347.29 L 177617.33,476124.85 L 177529.93,475896.11 L 177450.4,475677.21 L 177377.57,475454.77 L 177307.88,475231.15 L 177242.13,475007.14 L 177180.72,474782.33 L 177122.45,474556.35 L 177071.66,474325.25 L 177028.75,474102.41 L 176982.68,473872.49 L 176948.04,473646.11 L 176913.79,473408.32 L 176887.8,473178 L 176866.15,472945.33 L 176848.83,472710.29 L 176836.23,472472.1 L 176835.44,472237.06 L 176829.14,471996.51 L 176837.41,471755.17 L 176843.71,471503.99 L 176859.06,471259.11 L 177311.03,470643.36 L 177311.04,470643.35 z M 176859.07,471259.1 L 176891.35,470792.96 L 177311.03,470643.35 L 176859.07,471259.1 L 176859.07,471259.1 z "
   class="fil7"
   id="path224" />

    </g>

    <g
   id="g226">
     <polygon
   style="fill:#ff7a00"
   id="polygon228"
   points="195268,474728 219719,475646 220385,482294 218695,476971 195268,474728 "
   class="fil14" />

     <polygon
   style="fill:#ff7a00"
   id="polygon230"
   points="218619,475706 224832,472909 219439,476812 218619,475706 "
   class="fil14" />

    </g>

   </g>
    </g>
  </g>
</svg>
